# Made in Blockbench 5.1.6
mtllib spinning_wheel.mtl

o base
v 0.19147999999999998 0.6566009131435512 0.4766890371106973
v 0.19147999999999998 0.20216433721000718 -0.6204179077464557
v 0.19147999999999998 0.5988584423615957 0.5006067516335153
v 0.19147999999999998 0.14442186642805174 -0.5965001932236376
v -0.18352000000000002 0.20216433721000718 -0.6204179077464557
v -0.18352000000000002 0.6566009131435512 0.4766890371106973
v -0.18352000000000002 0.14442186642805174 -0.5965001932236376
v -0.18352000000000002 0.5988584423615957 0.5006067516335153
vt 0 1
vt 0.1875 1
vt 0.1875 0.96875
vt 0 0.96875
vt 0 1
vt 0.59375 1
vt 0.59375 0.96875
vt 0 0.96875
vt 0 1
vt 0.1875 1
vt 0.1875 0.96875
vt 0 0.96875
vt 0 1
vt 0.59375 1
vt 0.59375 0.96875
vt 0 0.96875
vt 0 0.53125
vt 0 0.71875
vt 0.59375 0.71875
vt 0.59375 0.53125
vt 0 0.53125
vt 0 0.71875
vt 0.59375 0.71875
vt 0.59375 0.53125
vn 0 -0.3826834323650897 -0.9238795325112867
vn 1 0 0
vn 0 0.3826834323650897 0.9238795325112867
vn -1 0 0
vn 0 0.9238795325112867 -0.3826834323650897
vn 0 -0.9238795325112867 0.3826834323650897
usemtl m_eb35c013-9d5b-523c-8b12-e2c7db44719e
f 4/4/1 7/3/1 5/2/1 2/1/1
f 3/8/2 4/7/2 2/6/2 1/5/2
f 8/12/3 3/11/3 1/10/3 6/9/3
f 7/16/4 8/15/4 6/14/4 5/13/4
f 6/20/5 1/19/5 2/18/5 5/17/5
f 7/24/6 4/23/6 3/22/6 8/21/6
o base
v 0.07273 1.1878902052977858 -0.6904714304964054
v 0.07273 1.1161370617293314 -0.8636988428422716
v 0.07273 0.3217531435684543 -0.33170571265413373
v 0.07273 0.25 -0.504933125
v 0.07273 1.1161370617293314 -0.8636988428422716
v 0.07273 1.1878902052977858 -0.6904714304964054
v 0.07273 0.25 -0.504933125
v 0.07273 0.3217531435684543 -0.33170571265413373
vt 0 1
vt 0 1
vt 0 0.53125
vt 0 0.53125
vt 0.90625 1
vt 1 1
vt 1 0.53125
vt 0.90625 0.53125
vt 0 1
vt 0 1
vt 0 0.53125
vt 0 0.53125
vt 0.90625 1
vt 1 1
vt 1 0.53125
vt 0.90625 0.53125
vt 0 1
vt 0 1
vt 0 0.90625
vt 0 0.90625
vt 0 1
vt 0 1
vt 0 0.90625
vt 0 0.90625
vn 0 -0.3826834323650897 -0.9238795325112867
vn 1 0 0
vn 0 0.3826834323650897 0.9238795325112867
vn -1 0 0
vn 0 0.9238795325112867 -0.3826834323650897
vn 0 -0.9238795325112867 0.3826834323650897
usemtl m_eb35c013-9d5b-523c-8b12-e2c7db44719e
f 12/28/7 15/27/7 13/26/7 10/25/7
f 11/32/8 12/31/8 10/30/8 9/29/8
f 16/36/9 11/35/9 9/34/9 14/33/9
f 15/40/10 16/39/10 14/38/10 13/37/10
f 14/44/11 9/43/11 10/42/11 13/41/11
f 15/48/12 12/47/12 11/46/12 16/45/12
o base
v -0.09539500000000001 1.1112494640786914 0.7534042055329546
v -0.09539500000000001 1.1590848931243278 0.6379192639690437
v -0.09539500000000001 0.5338247562591373 0.5142270603047736
v -0.09539500000000001 0.5816601853047736 0.3987421187408627
v -0.09602 1.1590848931243278 0.6379192639690437
v -0.09602 1.1112494640786914 0.7534042055329546
v -0.09602 0.5816601853047736 0.3987421187408627
v -0.09602 0.5338247562591373 0.5142270603047736
vt 0 0.78125
vt 0 0.84375
vt 0.3125 0.84375
vt 0.3125 0.78125
vt 0 0.84375
vt 0 0.78125
vt 0.3125 0.78125
vt 0.3125 0.84375
vn 1 0 0
vn -1 0 0
usemtl m_eb35c013-9d5b-523c-8b12-e2c7db44719e
f 19/52/13 20/51/13 18/50/13 17/49/13
f 23/56/14 24/55/14 22/54/14 21/53/14
o base
v 0.18897999999999998 0.625 0.557566875
v 0.18897999999999998 0.625 0.24506687500000002
v 0.18897999999999998 0 0.557566875
v 0.18897999999999998 0 0.24506687500000002
v 0.188355 0.625 0.24506687500000002
v 0.188355 0.625 0.557566875
v 0.188355 0 0.24506687500000002
v 0.188355 0 0.557566875
vt 0.34375 0.3125
vt 0.5 0.3125
vt 0.5 0
vt 0.34375 0
vt 0.5 0.3125
vt 0.34375 0.3125
vt 0.34375 0
vt 0.5 0
vn 1 0 0
vn -1 0 0
usemtl m_eb35c013-9d5b-523c-8b12-e2c7db44719e
f 27/60/15 28/59/15 26/58/15 25/57/15
f 31/64/16 32/63/16 30/62/16 29/61/16
o base
v -0.17977 0.625 0.557566875
v -0.17977 0.625 0.24506687500000002
v -0.17977 0 0.557566875
v -0.17977 0 0.24506687500000002
v -0.180395 0.625 0.24506687500000002
v -0.180395 0.625 0.557566875
v -0.180395 0 0.24506687500000002
v -0.180395 0 0.557566875
vt 0.34375 0.3125
vt 0.5 0.3125
vt 0.5 0
vt 0.34375 0
vt 0.5 0.3125
vt 0.34375 0.3125
vt 0.34375 0
vt 0.5 0
vn 1 0 0
vn -1 0 0
usemtl m_eb35c013-9d5b-523c-8b12-e2c7db44719e
f 35/68/17 36/67/17 34/66/17 33/65/17
f 39/72/18 40/71/18 38/70/18 37/69/18
o base
v 0.18897999999999998 0.25 -0.442433125
v 0.18897999999999998 0.25 -0.754933125
v 0.18897999999999998 0 -0.442433125
v 0.18897999999999998 0 -0.754933125
v 0.188355 0.25 -0.754933125
v 0.188355 0.25 -0.442433125
v 0.188355 0 -0.754933125
v 0.188355 0 -0.442433125
vt 0.53125 0.125
vt 0.6875 0.125
vt 0.6875 0
vt 0.53125 0
vt 0.6875 0.125
vt 0.53125 0.125
vt 0.53125 0
vt 0.6875 0
vn 1 0 0
vn -1 0 0
usemtl m_eb35c013-9d5b-523c-8b12-e2c7db44719e
f 43/76/19 44/75/19 42/74/19 41/73/19
f 47/80/20 48/79/20 46/78/20 45/77/20
o base
v -0.17977 0.25 -0.442433125
v -0.17977 0.25 -0.754933125
v -0.17977 0 -0.442433125
v -0.17977 0 -0.754933125
v -0.180395 0.25 -0.754933125
v -0.180395 0.25 -0.442433125
v -0.180395 0 -0.754933125
v -0.180395 0 -0.442433125
vt 0.53125 0.125
vt 0.6875 0.125
vt 0.6875 0
vt 0.53125 0
vt 0.6875 0.125
vt 0.53125 0.125
vt 0.53125 0
vt 0.6875 0
vn 1 0 0
vn -1 0 0
usemtl m_eb35c013-9d5b-523c-8b12-e2c7db44719e
f 51/84/21 52/83/21 50/82/21 49/81/21
f 55/88/22 56/87/22 54/86/22 53/85/22
o string_top
v 0.03522999640073505 1.2253680574909325 0.6785694898527876
v 0.03522999640073505 1.9485435672875389 -0.41119361512438185
v -0.027270008111754805 1.225368028046732 0.6785694703133807
v -0.02726999910018376 1.9485633269281155 -0.41118050246890453
vt 0 0.469903125
vt 0.592596875 0.469903125
vt 0.592596875 0.501153125
vt 0 0.501153125
vn 0.00037943457027899666 0.8332246221949702 0.5529345214376257
usemtl m_eb35c013-9d5b-523c-8b12-e2c7db44719e
f 57/89/23 58/90/23 60/91/23 59/92/23
o string_bottom
v 0.03522991340930901 0.9602032464881685 0.6785694437328034
v 0.035229634695486484 0.28878768898758445 -0.41118327977836455
v -0.027270091103180835 0.9602032170439679 0.6785694241933966
v -0.02727036981700337 0.28878765954338403 -0.4111832993177713
vt 0 0.469903125
vt 0.592596875 0.469903125
vt 0.592596875 0.501153125
vt 0 0.501153125
vn -2.3710083621257815e-7 0.8513797472931393 -0.5245498316642704
usemtl m_eb35c013-9d5b-523c-8b12-e2c7db44719e
f 61/93/24 62/94/24 64/95/24 63/96/24
o wheel_big
v 0.03523 1.948559375 -0.411183125
v 0.03523 1.948559375 -1.098683125
v 0.03523 1.886059375 -0.411183125
v 0.03523 1.886059375 -1.098683125
v -0.02727 1.948559375 -1.098683125
v -0.02727 1.948559375 -0.411183125
v -0.02727 1.886059375 -1.098683125
v -0.02727 1.886059375 -0.411183125
vt 0 1
vt 0 1
vt 0 1
vt 0 1
vt 0 0.96875
vt 0.34375 0.96875
vt 0.34375 1
vt 0 1
vt 0 1
vt 0 1
vt 0 1
vt 0 1
vt 0.34375 1
vt 0 1
vt 0 0.96875
vt 0.34375 0.96875
vt 0.34375 0.46875
vt 0.34375 0.5
vt 0 0.5
vt 0 0.46875
vt 0.34375 0.5
vt 0.34375 0.53125
vt 0 0.53125
vt 0 0.5
vn 0 0 -1
vn 1 0 0
vn 0 0 1
vn -1 0 0
vn 0 1 0
vn 0 -1 0
usemtl m_eb35c013-9d5b-523c-8b12-e2c7db44719e
f 68/100/25 71/99/25 69/98/25 66/97/25
f 67/104/26 68/103/26 66/102/26 65/101/26
f 72/108/27 67/107/27 65/106/27 70/105/27
f 71/112/28 72/111/28 70/110/28 69/109/28
f 70/116/29 65/115/29 66/114/29 69/113/29
f 71/120/30 68/119/30 67/118/30 72/117/30
o wheel_big
v 0.03523 1.4624239889555988 0.07495302602135034
v 0.03523 1.9485599010213501 -0.411182886044401
v 0.03523 1.4182298151314394 0.0307588521971911
v 0.03523 1.904365727197191 -0.45537705986856025
v -0.02727 1.9485599010213501 -0.411182886044401
v -0.02727 1.4624239889555988 0.07495302602135034
v -0.02727 1.904365727197191 -0.45537705986856025
v -0.02727 1.4182298151314394 0.0307588521971911
vt 0 1
vt 0 1
vt 0 1
vt 0 1
vt 0 0.96875
vt 0.34375 0.96875
vt 0.34375 1
vt 0 1
vt 0 1
vt 0 1
vt 0 1
vt 0 1
vt 0.34375 1
vt 0 1
vt 0 0.96875
vt 0.34375 0.96875
vt 0.34375 0.96875
vt 0.34375 1
vt 0 1
vt 0 0.96875
vt 0.34375 0.5
vt 0.34375 0.53125
vt 0 0.53125
vt 0 0.5
vn 0 0.7071067811865476 -0.7071067811865475
vn 1 0 0
vn 0 -0.7071067811865476 0.7071067811865475
vn -1 0 0
vn 0 0.7071067811865475 0.7071067811865476
vn 0 -0.7071067811865475 -0.7071067811865476
usemtl m_eb35c013-9d5b-523c-8b12-e2c7db44719e
f 76/124/31 79/123/31 77/122/31 74/121/31
f 75/128/32 76/127/32 74/126/32 73/125/32
f 80/132/33 75/131/33 73/130/33 78/129/33
f 79/136/34 80/135/34 78/134/34 77/133/34
f 78/140/35 73/139/35 74/138/35 77/137/35
f 79/144/36 76/143/36 75/142/36 80/141/36
o wheel_big
v 0.03523 1.46242375 0.07495249999999998
v 0.03523 1.46242375 0.012452499999999977
v 0.03523 0.7749237499999999 0.07495249999999998
v 0.03523 0.7749237499999999 0.012452499999999977
v -0.02727 1.46242375 0.012452499999999977
v -0.02727 1.46242375 0.07495249999999998
v -0.02727 0.7749237499999999 0.012452499999999977
v -0.02727 0.7749237499999999 0.07495249999999998
vt 0 0.53125
vt 0 0.5
vt 0.34375 0.5
vt 0.34375 0.53125
vt 0 1
vt 0 0.96875
vt 0.34375 0.96875
vt 0.34375 1
vt 0.34375 0.96875
vt 0.34375 1
vt 0 1
vt 0 0.96875
vt 0.34375 0.96875
vt 0.34375 1
vt 0 1
vt 0 0.96875
vt 0 1
vt 0 1
vt 0 1
vt 0 1
vt 0 1
vt 0 1
vt 0 1
vt 0 1
vn 0 0 -1
vn 1 0 0
vn 0 0 1
vn -1 0 0
vn 0 1 0
vn 0 -1 0
usemtl m_eb35c013-9d5b-523c-8b12-e2c7db44719e
f 84/148/37 87/147/37 85/146/37 82/145/37
f 83/152/38 84/151/38 82/150/38 81/149/38
f 88/156/39 83/155/39 81/154/39 86/153/39
f 87/160/40 88/159/40 86/158/40 85/157/40
f 86/164/41 81/163/41 82/162/41 85/161/41
f 87/168/42 84/167/42 83/166/42 88/165/42
o wheel_big
v 0.03523 0.33298221474454714 -1.0544887481897014
v 0.03523 0.8191181268102987 -1.5406246602554527
v 0.03523 0.288788040920388 -1.0986829220138605
v 0.03523 0.7749239529861396 -1.5848188340796119
v -0.02727 0.8191181268102987 -1.5406246602554527
v -0.02727 0.33298221474454714 -1.0544887481897014
v -0.02727 0.7749239529861396 -1.5848188340796119
v -0.02727 0.288788040920388 -1.0986829220138605
vt 0 1
vt 0 1
vt 0 1
vt 0 1
vt 0 0.96875
vt 0.34375 0.96875
vt 0.34375 1
vt 0 1
vt 0 1
vt 0 1
vt 0 1
vt 0 1
vt 0 0.96875
vt 0.34375 0.96875
vt 0.34375 1
vt 0 1
vt 0.34375 0.5
vt 0.34375 0.53125
vt 0 0.53125
vt 0 0.5
vt 0.34375 0.46875
vt 0.34375 0.5
vt 0 0.5
vt 0 0.46875
vn 0 0.7071067811865476 -0.7071067811865475
vn 1 0 0
vn 0 -0.7071067811865476 0.7071067811865475
vn -1 0 0
vn 0 0.7071067811865475 0.7071067811865476
vn 0 -0.7071067811865475 -0.7071067811865476
usemtl m_eb35c013-9d5b-523c-8b12-e2c7db44719e
f 92/172/43 95/171/43 93/170/43 90/169/43
f 91/176/44 92/175/44 90/174/44 89/173/44
f 96/180/45 91/179/45 89/178/45 94/177/45
f 95/184/46 96/183/46 94/182/46 93/181/46
f 94/188/47 89/187/47 90/186/47 93/185/47
f 95/192/48 92/191/48 91/190/48 96/189/48
o wheel_big
v 0.03523 0.35128812499999995 -0.411183125
v 0.03523 0.35128812499999995 -1.098683125
v 0.03523 0.28878812499999995 -0.411183125
v 0.03523 0.28878812499999995 -1.098683125
v -0.02727 0.35128812499999995 -1.098683125
v -0.02727 0.35128812499999995 -0.411183125
v -0.02727 0.28878812499999995 -1.098683125
v -0.02727 0.28878812499999995 -0.411183125
vt 0 1
vt 0 1
vt 0 1
vt 0 1
vt 0 0.96875
vt 0.34375 0.96875
vt 0.34375 1
vt 0 1
vt 0 1
vt 0 1
vt 0 1
vt 0 1
vt 0 0.96875
vt 0.34375 0.96875
vt 0.34375 1
vt 0 1
vt 0.34375 0.5
vt 0.34375 0.53125
vt 0 0.53125
vt 0 0.5
vt 0.34375 0.46875
vt 0.34375 0.5
vt 0 0.5
vt 0 0.46875
vn 0 0 -1
vn 1 0 0
vn 0 0 1
vn -1 0 0
vn 0 1 0
vn 0 -1 0
usemtl m_eb35c013-9d5b-523c-8b12-e2c7db44719e
f 100/196/49 103/195/49 101/194/49 98/193/49
f 99/200/50 100/199/50 98/198/50 97/197/50
f 104/204/51 99/203/51 97/202/51 102/201/51
f 103/208/52 104/207/52 102/206/52 101/205/52
f 102/212/53 97/211/53 98/210/53 101/209/53
f 103/216/54 100/215/54 99/214/54 104/213/54
o wheel_big
v 0.03523 0.7749239529861394 0.07495258407961192
v 0.03523 0.8191181268102986 0.030758410255452784
v 0.03523 0.288788040920388 -0.4111833279861396
v 0.03523 0.33298221474454726 -0.45537750181029873
v -0.02727 0.8191181268102986 0.030758410255452784
v -0.02727 0.7749239529861394 0.07495258407961192
v -0.02727 0.33298221474454726 -0.45537750181029873
v -0.02727 0.288788040920388 -0.4111833279861396
vt 0 0.53125
vt 0 0.5
vt 0.34375 0.5
vt 0.34375 0.53125
vt 0 1
vt 0 0.96875
vt 0.34375 0.96875
vt 0.34375 1
vt 0.34375 0.96875
vt 0.34375 1
vt 0 1
vt 0 0.96875
vt 0.34375 0.96875
vt 0.34375 1
vt 0 1
vt 0 0.96875
vt 0 1
vt 0 1
vt 0 1
vt 0 1
vt 0 1
vt 0 1
vt 0 1
vt 0 1
vn 0 0.7071067811865476 -0.7071067811865475
vn 1 0 0
vn 0 -0.7071067811865476 0.7071067811865475
vn -1 0 0
vn 0 0.7071067811865475 0.7071067811865476
vn 0 -0.7071067811865475 -0.7071067811865476
usemtl m_eb35c013-9d5b-523c-8b12-e2c7db44719e
f 108/220/55 111/219/55 109/218/55 106/217/55
f 107/224/56 108/223/56 106/222/56 105/221/56
f 112/228/57 107/227/57 105/226/57 110/225/57
f 111/232/58 112/231/58 110/230/58 109/229/58
f 110/236/59 105/235/59 106/234/59 109/233/59
f 111/240/60 108/239/60 107/238/60 112/237/60
o wheel_big
v 0.03523 0.5981472576895025 -0.19021245886534344
v 0.03523 1.084283169755254 -0.6763483709310948
v 0.03523 0.5539530838653434 -0.23440663268950257
v 0.03523 1.0400889959310948 -0.720542544755254
v -0.02727 1.084283169755254 -0.6763483709310948
v -0.02727 0.5981472576895025 -0.19021245886534344
v -0.02727 1.0400889959310948 -0.720542544755254
v -0.02727 0.5539530838653434 -0.23440663268950257
vt 0 1
vt 0 1
vt 0 1
vt 0 1
vt 0.34375 1
vt 0 1
vt 0 0.96875
vt 0.34375 0.96875
vt 0 1
vt 0 1
vt 0 1
vt 0 1
vt 0.34375 0.53125
vt 0 0.53125
vt 0 0.5
vt 0.34375 0.5
vt 0.34375 0.5
vt 0.34375 0.53125
vt 0 0.53125
vt 0 0.5
vt 0.34375 0.5
vt 0.34375 0.53125
vt 0 0.53125
vt 0 0.5
vn 0 0.7071067811865476 -0.7071067811865475
vn 1 0 0
vn 0 -0.7071067811865476 0.7071067811865475
vn -1 0 0
vn 0 0.7071067811865475 0.7071067811865476
vn 0 -0.7071067811865475 -0.7071067811865476
usemtl m_eb35c013-9d5b-523c-8b12-e2c7db44719e
f 116/244/61 119/243/61 117/242/61 114/241/61
f 115/248/62 116/247/62 114/246/62 113/245/62
f 120/252/63 115/251/63 113/250/63 118/249/63
f 119/256/64 120/255/64 118/254/64 117/253/64
f 118/260/65 113/259/65 114/258/65 117/257/65
f 119/264/66 116/263/66 115/262/66 120/261/66
o wheel_big
v 0.03523 1.14992375 0.012452499999999977
v 0.03523 1.14992375 -0.6750475
v 0.03523 1.08742375 0.012452499999999977
v 0.03523 1.08742375 -0.6750475
v -0.02727 1.14992375 -0.6750475
v -0.02727 1.14992375 0.012452499999999977
v -0.02727 1.08742375 -0.6750475
v -0.02727 1.08742375 0.012452499999999977
vt 0 1
vt 0 1
vt 0 1
vt 0 1
vt 0 0.96875
vt 0.34375 0.96875
vt 0.34375 1
vt 0 1
vt 0 1
vt 0 1
vt 0 1
vt 0 1
vt 0.34375 1
vt 0 1
vt 0 0.96875
vt 0.34375 0.96875
vt 0.34375 0.5
vt 0.34375 0.53125
vt 0 0.53125
vt 0 0.5
vt 0.34375 0.5
vt 0.34375 0.53125
vt 0 0.53125
vt 0 0.5
vn 0 0 -1
vn 1 0 0
vn 0 0 1
vn -1 0 0
vn 0 1 0
vn 0 -1 0
usemtl m_eb35c013-9d5b-523c-8b12-e2c7db44719e
f 124/268/67 127/267/67 125/266/67 122/265/67
f 123/272/68 124/271/68 122/270/68 121/269/68
f 128/276/69 123/275/69 121/274/69 126/273/69
f 127/280/70 128/279/70 126/278/70 125/277/70
f 126/284/71 121/283/71 122/282/71 125/281/71
f 127/288/72 124/287/72 123/286/72 128/285/72
o wheel_big
v 0.03523 1.038788125 -0.723683125
v 0.03523 1.038788125 -0.786183125
v 0.03523 0.35128812499999995 -0.723683125
v 0.03523 0.35128812499999995 -0.786183125
v -0.02727 1.038788125 -0.786183125
v -0.02727 1.038788125 -0.723683125
v -0.02727 0.35128812499999995 -0.786183125
v -0.02727 0.35128812499999995 -0.723683125
vt 0 0.53125
vt 0 0.5
vt 0.34375 0.5
vt 0.34375 0.53125
vt 0 1
vt 0 0.96875
vt 0.34375 0.96875
vt 0.34375 1
vt 0.34375 0.5
vt 0.34375 0.53125
vt 0 0.53125
vt 0 0.5
vt 0.53125 0.96875
vt 0.53125 1
vt 0.1875 1
vt 0.1875 0.96875
vt 0 1
vt 0 1
vt 0 1
vt 0 1
vt 0 1
vt 0 1
vt 0 1
vt 0 1
vn 0 0 -1
vn 1 0 0
vn 0 0 1
vn -1 0 0
vn 0 1 0
vn 0 -1 0
usemtl m_eb35c013-9d5b-523c-8b12-e2c7db44719e
f 132/292/73 135/291/73 133/290/73 130/289/73
f 131/296/74 132/295/74 130/294/74 129/293/74
f 136/300/75 131/299/75 129/298/75 134/297/75
f 135/304/76 136/303/76 134/302/76 133/301/76
f 134/308/77 129/307/77 130/306/77 133/305/77
f 135/312/78 132/311/78 131/310/78 136/309/78
o wheel_big
v 0.03523 1.0400889959310948 -0.7893237052447459
v 0.03523 1.084283169755254 -0.8335178790689052
v 0.03523 0.5539530838653434 -1.2754596173104975
v 0.03523 0.5981472576895025 -1.3196537911346566
v -0.02727 1.084283169755254 -0.8335178790689052
v -0.02727 1.0400889959310948 -0.7893237052447459
v -0.02727 0.5981472576895025 -1.3196537911346566
v -0.02727 0.5539530838653434 -1.2754596173104975
vt 0 0.53125
vt 0 0.5
vt 0.34375 0.5
vt 0.34375 0.53125
vt 0 1
vt 0 0.96875
vt 0.34375 0.96875
vt 0.34375 1
vt 0.34375 0.5
vt 0.34375 0.53125
vt 0 0.53125
vt 0 0.5
vt 0.34375 0.96875
vt 0.34375 1
vt 0 1
vt 0 0.96875
vt 0 1
vt 0 1
vt 0 1
vt 0 1
vt 0 1
vt 0 1
vt 0 1
vt 0 1
vn 0 0.7071067811865476 -0.7071067811865475
vn 1 0 0
vn 0 -0.7071067811865476 0.7071067811865475
vn -1 0 0
vn 0 0.7071067811865475 0.7071067811865476
vn 0 -0.7071067811865475 -0.7071067811865476
usemtl m_eb35c013-9d5b-523c-8b12-e2c7db44719e
f 140/316/79 143/315/79 141/314/79 138/313/79
f 139/320/80 140/319/80 138/318/80 137/317/80
f 144/324/81 139/323/81 137/322/81 142/321/81
f 143/328/82 144/327/82 142/326/82 141/325/82
f 142/332/83 137/331/83 138/330/83 141/329/83
f 143/336/84 140/335/84 139/334/84 144/333/84
o wheel_big
v 0.03523 1.14992375 -0.8348187499999999
v 0.03523 1.14992375 -1.52231875
v 0.03523 1.08742375 -0.8348187499999999
v 0.03523 1.08742375 -1.52231875
v -0.02727 1.14992375 -1.52231875
v -0.02727 1.14992375 -0.8348187499999999
v -0.02727 1.08742375 -1.52231875
v -0.02727 1.08742375 -0.8348187499999999
vt 0 1
vt 0 1
vt 0 1
vt 0 1
vt 0 0.96875
vt 0.34375 0.96875
vt 0.34375 1
vt 0 1
vt 0 1
vt 0 1
vt 0 1
vt 0 1
vt 0.15625 0.96875
vt 0.5 0.96875
vt 0.5 1
vt 0.15625 1
vt 0.34375 0.5
vt 0.34375 0.53125
vt 0 0.53125
vt 0 0.5
vt 0.34375 0.5
vt 0.34375 0.53125
vt 0 0.53125
vt 0 0.5
vn 0 0 -1
vn 1 0 0
vn 0 0 1
vn -1 0 0
vn 0 1 0
vn 0 -1 0
usemtl m_eb35c013-9d5b-523c-8b12-e2c7db44719e
f 148/340/85 151/339/85 149/338/85 146/337/85
f 147/344/86 148/343/86 146/342/86 145/341/86
f 152/348/87 147/347/87 145/346/87 150/345/87
f 151/352/88 152/351/88 150/350/88 149/349/88
f 150/356/89 145/355/89 146/354/89 149/353/89
f 151/360/90 148/359/90 147/358/90 152/357/90
o wheel_big
v 0.03523 1.197258504068905 -0.7893237052447459
v 0.03523 1.6833944161346563 -1.2754596173104975
v 0.03523 1.1530643302447459 -0.8335178790689052
v 0.03523 1.6392002423104972 -1.3196537911346566
v -0.02727 1.6833944161346563 -1.2754596173104975
v -0.02727 1.197258504068905 -0.7893237052447459
v -0.02727 1.6392002423104972 -1.3196537911346566
v -0.02727 1.1530643302447459 -0.8335178790689052
vt 0 1
vt 0 1
vt 0 1
vt 0 1
vt 0.34375 1
vt 0 1
vt 0 0.96875
vt 0.34375 0.96875
vt 0 1
vt 0 1
vt 0 1
vt 0 1
vt 0.3125 0.96875
vt 0.65625 0.96875
vt 0.65625 1
vt 0.3125 1
vt 0.34375 0.5
vt 0.34375 0.53125
vt 0 0.53125
vt 0 0.5
vt 0.34375 0.5
vt 0.34375 0.53125
vt 0 0.53125
vt 0 0.5
vn 0 0.7071067811865476 -0.7071067811865475
vn 1 0 0
vn 0 -0.7071067811865476 0.7071067811865475
vn -1 0 0
vn 0 0.7071067811865475 0.7071067811865476
vn 0 -0.7071067811865475 -0.7071067811865476
usemtl m_eb35c013-9d5b-523c-8b12-e2c7db44719e
f 156/364/91 159/363/91 157/362/91 154/361/91
f 155/368/92 156/367/92 154/366/92 153/365/92
f 160/372/93 155/371/93 153/370/93 158/369/93
f 159/376/94 160/375/94 158/374/94 157/373/94
f 158/380/95 153/379/95 154/378/95 157/377/95
f 159/384/96 156/383/96 155/382/96 160/381/96
o wheel_big
v 0.03523 1.6392002423104974 -0.19021245886534321
v 0.03523 1.6833944161346566 -0.23440663268950235
v 0.03523 1.153064330244746 -0.6763483709310947
v 0.03523 1.1972585040689052 -0.7205425447552538
v -0.02727 1.6833944161346566 -0.23440663268950235
v -0.02727 1.6392002423104974 -0.19021245886534321
v -0.02727 1.1972585040689052 -0.7205425447552538
v -0.02727 1.153064330244746 -0.6763483709310947
vt 0 0.53125
vt 0 0.5
vt 0.34375 0.5
vt 0.34375 0.53125
vt 0 1
vt 0 0.96875
vt 0.34375 0.96875
vt 0.34375 1
vt 0.34375 0.5
vt 0.34375 0.53125
vt 0 0.53125
vt 0 0.5
vt 0.125 1
vt 0.125 0.96875
vt 0.46875 0.96875
vt 0.46875 1
vt 0 1
vt 0 1
vt 0 1
vt 0 1
vt 0 1
vt 0 1
vt 0 1
vt 0 1
vn 0 0.7071067811865476 -0.7071067811865475
vn 1 0 0
vn 0 -0.7071067811865476 0.7071067811865475
vn -1 0 0
vn 0 0.7071067811865475 0.7071067811865476
vn 0 -0.7071067811865475 -0.7071067811865476
usemtl m_eb35c013-9d5b-523c-8b12-e2c7db44719e
f 164/388/97 167/387/97 165/386/97 162/385/97
f 163/392/98 164/391/98 162/390/98 161/389/98
f 168/396/99 163/395/99 161/394/99 166/393/99
f 167/400/100 168/399/100 166/398/100 165/397/100
f 166/404/101 161/403/101 162/402/101 165/401/101
f 167/408/102 164/407/102 163/406/102 168/405/102
o wheel_big
v 0.03523 1.886059375 -0.723683125
v 0.03523 1.886059375 -0.786183125
v 0.03523 1.198559375 -0.723683125
v 0.03523 1.198559375 -0.786183125
v -0.02727 1.886059375 -0.786183125
v -0.02727 1.886059375 -0.723683125
v -0.02727 1.198559375 -0.786183125
v -0.02727 1.198559375 -0.723683125
vt 0 0.53125
vt 0 0.5
vt 0.34375 0.5
vt 0.34375 0.53125
vt 0 1
vt 0 0.96875
vt 0.34375 0.96875
vt 0.34375 1
vt 0.34375 0.5
vt 0.34375 0.53125
vt 0 0.53125
vt 0 0.5
vt 0 1
vt 0 0.96875
vt 0.34375 0.96875
vt 0.34375 1
vt 0 1
vt 0 1
vt 0 1
vt 0 1
vt 0 1
vt 0 1
vt 0 1
vt 0 1
vn 0 0 -1
vn 1 0 0
vn 0 0 1
vn -1 0 0
vn 0 1 0
vn 0 -1 0
usemtl m_eb35c013-9d5b-523c-8b12-e2c7db44719e
f 172/412/103 175/411/103 173/410/103 170/409/103
f 171/416/104 172/415/104 170/414/104 169/413/104
f 176/420/105 171/419/105 169/418/105 174/417/105
f 175/424/106 176/423/106 174/422/106 173/421/106
f 174/428/107 169/427/107 170/426/107 173/425/107
f 175/432/108 172/431/108 171/430/108 176/429/108
o wheel_big
v 0.03523 1.46242375 -1.522319375
v 0.03523 1.46242375 -1.584819375
v 0.03523 0.7749237499999999 -1.522319375
v 0.03523 0.7749237499999999 -1.584819375
v -0.02727 1.46242375 -1.584819375
v -0.02727 1.46242375 -1.522319375
v -0.02727 0.7749237499999999 -1.584819375
v -0.02727 0.7749237499999999 -1.522319375
vt 0 0.5
vt 0 0.46875
vt 0.34375 0.46875
vt 0.34375 0.5
vt 0 1
vt 0 0.96875
vt 0.34375 0.96875
vt 0.34375 1
vt 0.34375 0.5
vt 0.34375 0.53125
vt 0 0.53125
vt 0 0.5
vt 0 1
vt 0 0.96875
vt 0.34375 0.96875
vt 0.34375 1
vt 0 1
vt 0 1
vt 0 1
vt 0 1
vt 0 1
vt 0 1
vt 0 1
vt 0 1
vn 0 0 -1
vn 1 0 0
vn 0 0 1
vn -1 0 0
vn 0 1 0
vn 0 -1 0
usemtl m_eb35c013-9d5b-523c-8b12-e2c7db44719e
f 180/436/109 183/435/109 181/434/109 178/433/109
f 179/440/110 180/439/110 178/438/110 177/437/110
f 184/444/111 179/443/111 177/442/111 182/441/111
f 183/448/112 184/447/112 182/446/112 181/445/112
f 182/452/113 177/451/113 178/450/113 181/449/113
f 183/456/114 180/455/114 179/454/114 184/453/114
o wheel_big
v 0.03523 1.9043652852554525 -1.0544887481897012
v 0.03523 1.9485594590796118 -1.0986829220138603
v 0.03523 1.418229373189701 -1.5406246602554527
v 0.03523 1.4624235470138605 -1.5848188340796119
v -0.02727 1.9485594590796118 -1.0986829220138603
v -0.02727 1.9043652852554525 -1.0544887481897012
v -0.02727 1.4624235470138605 -1.5848188340796119
v -0.02727 1.418229373189701 -1.5406246602554527
vt 0 0.5
vt 0 0.46875
vt 0.34375 0.46875
vt 0.34375 0.5
vt 0 1
vt 0 0.96875
vt 0.34375 0.96875
vt 0.34375 1
vt 0.34375 0.5
vt 0.34375 0.53125
vt 0 0.53125
vt 0 0.5
vt 0 1
vt 0 0.96875
vt 0.34375 0.96875
vt 0.34375 1
vt 0 1
vt 0 1
vt 0 1
vt 0 1
vt 0 1
vt 0 1
vt 0 1
vt 0 1
vn 0 0.7071067811865476 -0.7071067811865475
vn 1 0 0
vn 0 -0.7071067811865476 0.7071067811865475
vn -1 0 0
vn 0 0.7071067811865475 0.7071067811865476
vn 0 -0.7071067811865475 -0.7071067811865476
usemtl m_eb35c013-9d5b-523c-8b12-e2c7db44719e
f 188/460/115 191/459/115 189/458/115 186/457/115
f 187/464/116 188/463/116 186/462/116 185/461/116
f 192/468/117 187/467/117 185/466/117 190/465/117
f 191/472/118 192/471/118 190/470/118 189/469/118
f 190/476/119 185/475/119 186/474/119 189/473/119
f 191/480/120 188/479/120 187/478/120 192/477/120
o wheel_big
v 0.06648 1.211535625 -0.665180625
v 0.06648 1.211535625 -0.852680625
v 0.06648 1.024035625 -0.665180625
v 0.06648 1.024035625 -0.852680625
v -0.05852 1.211535625 -0.852680625
v -0.05852 1.211535625 -0.665180625
v -0.05852 1.024035625 -0.852680625
v -0.05852 1.024035625 -0.665180625
vt 0.28125 0.84375
vt 0.28125 0.90625
vt 0.1875 0.90625
vt 0.1875 0.84375
vt 0 0.9375
vt 0 0.84375
vt 0.09375 0.84375
vt 0.09375 0.9375
vt 0.1875 0.90625
vt 0.1875 0.84375
vt 0.28125 0.84375
vt 0.28125 0.90625
vt 0 0.9375
vt 0 0.84375
vt 0.09375 0.84375
vt 0.09375 0.9375
vt 0.1875 0.90625
vt 0.1875 0.84375
vt 0.28125 0.84375
vt 0.28125 0.90625
vt 0.1875 0.90625
vt 0.1875 0.84375
vt 0.28125 0.84375
vt 0.28125 0.90625
vn 0 0 -1
vn 1 0 0
vn 0 0 1
vn -1 0 0
vn 0 1 0
vn 0 -1 0
usemtl m_eb35c013-9d5b-523c-8b12-e2c7db44719e
f 196/484/121 199/483/121 197/482/121 194/481/121
f 195/488/122 196/487/122 194/486/122 193/485/122
f 200/492/123 195/491/123 193/490/123 198/489/123
f 199/496/124 200/495/124 198/494/124 197/493/124
f 198/500/125 193/499/125 194/498/125 197/497/125
f 199/504/126 196/503/126 195/502/126 200/501/126
o wheel_part_1
v 0.03523 1.2253681464724777 0.678569375
v 0.03523 1.092785625 0.5459868535275223
v 0.03523 1.092785625 0.8111518964724778
v 0.03523 0.9602031035275225 0.678569375
v -0.08977 1.092785625 0.5459868535275223
v -0.08977 1.2253681464724777 0.678569375
v -0.08977 0.9602031035275225 0.678569375
v -0.08977 1.092785625 0.8111518964724778
vt 0.28125 0.84375
vt 0.28125 0.90625
vt 0.1875 0.90625
vt 0.1875 0.84375
vt 0 0.9375
vt 0 0.84375
vt 0.09375 0.84375
vt 0.09375 0.9375
vt 0.09375 0.90625
vt 0.09375 0.84375
vt 0.1875 0.84375
vt 0.1875 0.90625
vt 0 0.9375
vt 0 0.84375
vt 0.09375 0.84375
vt 0.09375 0.9375
vt 0.1875 0.90625
vt 0.1875 0.84375
vt 0.28125 0.84375
vt 0.28125 0.90625
vt 0.09375 0.90625
vt 0.09375 0.84375
vt 0.1875 0.84375
vt 0.1875 0.90625
vn 0 -0.7071067811865476 -0.7071067811865475
vn 1 0 0
vn 0 0.7071067811865476 0.7071067811865475
vn -1 0 0
vn 0 0.7071067811865475 -0.7071067811865476
vn 0 -0.7071067811865475 0.7071067811865476
usemtl m_eb35c013-9d5b-523c-8b12-e2c7db44719e
f 204/508/127 207/507/127 205/506/127 202/505/127
f 203/512/128 204/511/128 202/510/128 201/509/128
f 208/516/129 203/515/129 201/514/129 206/513/129
f 207/520/130 208/519/130 206/518/130 205/517/130
f 206/524/131 201/523/131 202/522/131 205/521/131
f 207/528/132 204/527/132 203/526/132 208/525/132
o wheel_part_2
v -0.08977000000000002 1.1369797988241592 0.678569375
v -0.08977000000000002 1.092785625 0.6343752011758408
v -0.08977000000000002 1.092785625 0.7227635488241593
v -0.08977000000000002 1.048591451175841 0.678569375
v -0.40227 1.092785625 0.6343752011758408
v -0.40227 1.1369797988241592 0.678569375
v -0.40227 1.048591451175841 0.678569375
v -0.40227 1.092785625 0.7227635488241593
vt 0.4375 0.53125
vt 0.28125 0.53125
vt 0.28125 0.5
vt 0.4375 0.5
vt 0 1
vt 0 1
vt 0 1
vt 0 1
vt 0.4375 0.53125
vt 0.28125 0.53125
vt 0.28125 0.5
vt 0.4375 0.5
vt 0.03125 0.90625
vt 0.03125 0.875
vt 0.0625 0.875
vt 0.0625 0.90625
vt 0.28125 0.5
vt 0.4375 0.5
vt 0.4375 0.53125
vt 0.28125 0.53125
vt 0.28125 0.5
vt 0.4375 0.5
vt 0.4375 0.53125
vt 0.28125 0.53125
vn 0 -0.7071067811865476 -0.7071067811865475
vn 1 0 0
vn 0 0.7071067811865476 0.7071067811865475
vn -1 0 0
vn 0 0.7071067811865475 -0.7071067811865476
vn 0 -0.7071067811865475 0.7071067811865476
usemtl m_eb35c013-9d5b-523c-8b12-e2c7db44719e
f 212/532/133 215/531/133 213/530/133 210/529/133
f 211/536/134 212/535/134 210/534/134 209/533/134
f 216/540/135 211/539/135 209/538/135 214/537/135
f 215/544/136 216/543/136 214/542/136 213/541/136
f 214/548/137 209/547/137 210/546/137 213/545/137
f 215/552/138 212/551/138 211/550/138 216/549/138
o bolt
v -0.08977000000000002 1.2253681464724777 0.678569375
v -0.08977000000000002 1.092785625 0.5459868535275223
v -0.08977000000000002 1.092785625 0.8111518964724778
v -0.08977000000000002 0.9602031035275225 0.678569375
v -0.39602 1.092785625 0.5459868535275223
v -0.39602 1.2253681464724777 0.678569375
v -0.39602 0.9602031035275225 0.678569375
v -0.39602 1.092785625 0.8111518964724778
vt 0.40625 0.5
vt 0.25 0.5
vt 0.25 0.46875
vt 0.40625 0.46875
vt 0 1
vt 0 1
vt 0 1
vt 0 1
vt 0.40625 0.5
vt 0.25 0.5
vt 0.25 0.46875
vt 0.40625 0.46875
vt 0.21875 0.5
vt 0.21875 0.46875
vt 0.25 0.46875
vt 0.25 0.5
vt 0.25 0.46875
vt 0.40625 0.46875
vt 0.40625 0.5
vt 0.25 0.5
vt 0.25 0.46875
vt 0.40625 0.46875
vt 0.40625 0.5
vt 0.25 0.5
vn 0 -0.7071067811865476 -0.7071067811865475
vn 1 0 0
vn 0 0.7071067811865476 0.7071067811865475
vn -1 0 0
vn 0 0.7071067811865475 -0.7071067811865476
vn 0 -0.7071067811865475 0.7071067811865476
usemtl m_eb35c013-9d5b-523c-8b12-e2c7db44719e
f 220/556/139 223/555/139 221/554/139 218/553/139
f 219/560/140 220/559/140 218/558/140 217/557/140
f 224/564/141 219/563/141 217/562/141 222/561/141
f 223/568/142 224/567/142 222/566/142 221/565/142
f 222/572/143 217/571/143 218/570/143 221/569/143
f 223/576/144 220/575/144 219/574/144 224/573/144