# Made in Blockbench 5.1.6
mtllib spinning_wheel.mtl

o base
v 0.19147999999999998 0.6566009131435512 0.4766890371106973
v 0.19147999999999998 0.20216433721000718 -0.6204179077464557
v 0.19147999999999998 0.5988584423615957 0.5006067516335153
v 0.19147999999999998 0.14442186642805174 -0.5965001932236376
v -0.18352000000000002 0.20216433721000718 -0.6204179077464557
v -0.18352000000000002 0.6566009131435512 0.4766890371106973
v -0.18352000000000002 0.14442186642805174 -0.5965001932236376
v -0.18352000000000002 0.5988584423615957 0.5006067516335153
vt 0 1
vt 0.1875 1
vt 0.1875 0.96875
vt 0 0.96875
vt 0 1
vt 0.59375 1
vt 0.59375 0.96875
vt 0 0.96875
vt 0 1
vt 0.1875 1
vt 0.1875 0.96875
vt 0 0.96875
vt 0 1
vt 0.59375 1
vt 0.59375 0.96875
vt 0 0.96875
vt 0 0.53125
vt 0 0.71875
vt 0.59375 0.71875
vt 0.59375 0.53125
vt 0 0.53125
vt 0 0.71875
vt 0.59375 0.71875
vt 0.59375 0.53125
vn 0 -0.3826834323650897 -0.9238795325112867
vn 1 0 0
vn 0 0.3826834323650897 0.9238795325112867
vn -1 0 0
vn 0 0.9238795325112867 -0.3826834323650897
vn 0 -0.9238795325112867 0.3826834323650897
usemtl m_eb35c013-9d5b-523c-8b12-e2c7db44719e
o base
v 0.07273 1.1878902052977858 -0.6904714304964054
v 0.07273 1.1161370617293314 -0.8636988428422716
v 0.07273 0.3217531435684543 -0.33170571265413373
v 0.07273 0.25 -0.504933125
v 0.07273 1.1161370617293314 -0.8636988428422716
v 0.07273 1.1878902052977858 -0.6904714304964054
v 0.07273 0.25 -0.504933125
v 0.07273 0.3217531435684543 -0.33170571265413373
vt 0 1
vt 0 1
vt 0 0.53125
vt 0 0.53125
vt 0.90625 1
vt 1 1
vt 1 0.53125
vt 0.90625 0.53125
vt 0 1
vt 0 1
vt 0 0.53125
vt 0 0.53125
vt 0.90625 1
vt 1 1
vt 1 0.53125
vt 0.90625 0.53125
vt 0 1
vt 0 1
vt 0 0.90625
vt 0 0.90625
vt 0 1
vt 0 1
vt 0 0.90625
vt 0 0.90625
vn 0 -0.3826834323650897 -0.9238795325112867
vn 1 0 0
vn 0 0.3826834323650897 0.9238795325112867
vn -1 0 0
vn 0 0.9238795325112867 -0.3826834323650897
vn 0 -0.9238795325112867 0.3826834323650897
usemtl m_eb35c013-9d5b-523c-8b12-e2c7db44719e
o base
v -0.09539500000000001 1.1112494640786914 0.7534042055329546
v -0.09539500000000001 1.1590848931243278 0.6379192639690437
v -0.09539500000000001 0.5338247562591373 0.5142270603047736
v -0.09539500000000001 0.5816601853047736 0.3987421187408627
v -0.09602 1.1590848931243278 0.6379192639690437
v -0.09602 1.1112494640786914 0.7534042055329546
v -0.09602 0.5816601853047736 0.3987421187408627
v -0.09602 0.5338247562591373 0.5142270603047736
vt 0 0.78125
vt 0 0.84375
vt 0.3125 0.84375
vt 0.3125 0.78125
vt 0 0.84375
vt 0 0.78125
vt 0.3125 0.78125
vt 0.3125 0.84375
vn 1 0 0
vn -1 0 0
usemtl m_eb35c013-9d5b-523c-8b12-e2c7db44719e
o base
v 0.18897999999999998 0.625 0.557566875
v 0.18897999999999998 0.625 0.24506687500000002
v 0.18897999999999998 0 0.557566875
v 0.18897999999999998 0 0.24506687500000002
v 0.188355 0.625 0.24506687500000002
v 0.188355 0.625 0.557566875
v 0.188355 0 0.24506687500000002
v 0.188355 0 0.557566875
vt 0.34375 0.3125
vt 0.5 0.3125
vt 0.5 0
vt 0.34375 0
vt 0.5 0.3125
vt 0.34375 0.3125
vt 0.34375 0
vt 0.5 0
vn 1 0 0
vn -1 0 0
usemtl m_eb35c013-9d5b-523c-8b12-e2c7db44719e
o base
v -0.17977 0.625 0.557566875
v -0.17977 0.625 0.24506687500000002
v -0.17977 0 0.557566875
v -0.17977 0 0.24506687500000002
v -0.180395 0.625 0.24506687500000002
v -0.180395 0.625 0.557566875
v -0.180395 0 0.24506687500000002
v -0.180395 0 0.557566875
vt 0.34375 0.3125
vt 0.5 0.3125
vt 0.5 0
vt 0.34375 0
vt 0.5 0.3125
vt 0.34375 0.3125
vt 0.34375 0
vt 0.5 0
vn 1 0 0
vn -1 0 0
usemtl m_eb35c013-9d5b-523c-8b12-e2c7db44719e
o base
v 0.18897999999999998 0.25 -0.442433125
v 0.18897999999999998 0.25 -0.754933125
v 0.18897999999999998 0 -0.442433125
v 0.18897999999999998 0 -0.754933125
v 0.188355 0.25 -0.754933125
v 0.188355 0.25 -0.442433125
v 0.188355 0 -0.754933125
v 0.188355 0 -0.442433125
vt 0.53125 0.125
vt 0.6875 0.125
vt 0.6875 0
vt 0.53125 0
vt 0.6875 0.125
vt 0.53125 0.125
vt 0.53125 0
vt 0.6875 0
vn 1 0 0
vn -1 0 0
usemtl m_eb35c013-9d5b-523c-8b12-e2c7db44719e
o base
v -0.17977 0.25 -0.442433125
v -0.17977 0.25 -0.754933125
v -0.17977 0 -0.442433125
v -0.17977 0 -0.754933125
v -0.180395 0.25 -0.754933125
v -0.180395 0.25 -0.442433125
v -0.180395 0 -0.754933125
v -0.180395 0 -0.442433125
vt 0.53125 0.125
vt 0.6875 0.125
vt 0.6875 0
vt 0.53125 0
vt 0.6875 0.125
vt 0.53125 0.125
vt 0.53125 0
vt 0.6875 0
vn 1 0 0
vn -1 0 0
usemtl m_eb35c013-9d5b-523c-8b12-e2c7db44719e
o base
v 0.03522999640073505 1.2253680574909325 0.6785694898527876
v 0.03522999640073505 1.9485435672875389 -0.41119361512438185
v -0.027270008111754805 1.225368028046732 0.6785694703133807
v -0.02726999910018376 1.9485633269281155 -0.41118050246890453
vt 0 0.469903125
vt 0.592596875 0.469903125
vt 0.592596875 0.501153125
vt 0 0.501153125
vn 0.00037943457027899666 0.8332246221949702 0.5529345214376257
usemtl m_eb35c013-9d5b-523c-8b12-e2c7db44719e
o base
v 0.03522991340930901 0.9602032464881685 0.6785694437328034
v 0.035229634695486484 0.28878768898758445 -0.41118327977836455
v -0.027270091103180835 0.9602032170439679 0.6785694241933966
v -0.02727036981700337 0.28878765954338403 -0.4111832993177713
vt 0 0.469903125
vt 0.592596875 0.469903125
vt 0.592596875 0.501153125
vt 0 0.501153125
vn -2.3710083621257815e-7 0.8513797472931393 -0.5245498316642704
usemtl m_eb35c013-9d5b-523c-8b12-e2c7db44719e
o base
v 0.03523 1.948559375 -0.411183125
v 0.03523 1.948559375 -1.098683125
v 0.03523 1.886059375 -0.411183125
v 0.03523 1.886059375 -1.098683125
v -0.02727 1.948559375 -1.098683125
v -0.02727 1.948559375 -0.411183125
v -0.02727 1.886059375 -1.098683125
v -0.02727 1.886059375 -0.411183125
vt 0 1
vt 0 1
vt 0 1
vt 0 1
vt 0 0.96875
vt 0.34375 0.96875
vt 0.34375 1
vt 0 1
vt 0 1
vt 0 1
vt 0 1
vt 0 1
vt 0.34375 1
vt 0 1
vt 0 0.96875
vt 0.34375 0.96875
vt 0.34375 0.46875
vt 0.34375 0.5
vt 0 0.5
vt 0 0.46875
vt 0.34375 0.5
vt 0.34375 0.53125
vt 0 0.53125
vt 0 0.5
vn 0 0 -1
vn 1 0 0
vn 0 0 1
vn -1 0 0
vn 0 1 0
vn 0 -1 0
usemtl m_eb35c013-9d5b-523c-8b12-e2c7db44719e
o base
v 0.03523 1.4624239889555988 0.07495302602135034
v 0.03523 1.9485599010213501 -0.411182886044401
v 0.03523 1.4182298151314394 0.0307588521971911
v 0.03523 1.904365727197191 -0.45537705986856025
v -0.02727 1.9485599010213501 -0.411182886044401
v -0.02727 1.4624239889555988 0.07495302602135034
v -0.02727 1.904365727197191 -0.45537705986856025
v -0.02727 1.4182298151314394 0.0307588521971911
vt 0 1
vt 0 1
vt 0 1
vt 0 1
vt 0 0.96875
vt 0.34375 0.96875
vt 0.34375 1
vt 0 1
vt 0 1
vt 0 1
vt 0 1
vt 0 1
vt 0.34375 1
vt 0 1
vt 0 0.96875
vt 0.34375 0.96875
vt 0.34375 0.96875
vt 0.34375 1
vt 0 1
vt 0 0.96875
vt 0.34375 0.5
vt 0.34375 0.53125
vt 0 0.53125
vt 0 0.5
vn 0 0.7071067811865476 -0.7071067811865475
vn 1 0 0
vn 0 -0.7071067811865476 0.7071067811865475
vn -1 0 0
vn 0 0.7071067811865475 0.7071067811865476
vn 0 -0.7071067811865475 -0.7071067811865476
usemtl m_eb35c013-9d5b-523c-8b12-e2c7db44719e
o base
v 0.03523 1.46242375 0.07495249999999998
v 0.03523 1.46242375 0.012452499999999977
v 0.03523 0.7749237499999999 0.07495249999999998
v 0.03523 0.7749237499999999 0.012452499999999977
v -0.02727 1.46242375 0.012452499999999977
v -0.02727 1.46242375 0.07495249999999998
v -0.02727 0.7749237499999999 0.012452499999999977
v -0.02727 0.7749237499999999 0.07495249999999998
vt 0 0.53125
vt 0 0.5
vt 0.34375 0.5
vt 0.34375 0.53125
vt 0 1
vt 0 0.96875
vt 0.34375 0.96875
vt 0.34375 1
vt 0.34375 0.96875
vt 0.34375 1
vt 0 1
vt 0 0.96875
vt 0.34375 0.96875
vt 0.34375 1
vt 0 1
vt 0 0.96875
vt 0 1
vt 0 1
vt 0 1
vt 0 1
vt 0 1
vt 0 1
vt 0 1
vt 0 1
vn 0 0 -1
vn 1 0 0
vn 0 0 1
vn -1 0 0
vn 0 1 0
vn 0 -1 0
usemtl m_eb35c013-9d5b-523c-8b12-e2c7db44719e
o base
v 0.03523 0.33298221474454714 -1.0544887481897014
v 0.03523 0.8191181268102987 -1.5406246602554527
v 0.03523 0.288788040920388 -1.0986829220138605
v 0.03523 0.7749239529861396 -1.5848188340796119
v -0.02727 0.8191181268102987 -1.5406246602554527
v -0.02727 0.33298221474454714 -1.0544887481897014
v -0.02727 0.7749239529861396 -1.5848188340796119
v -0.02727 0.288788040920388 -1.0986829220138605
vt 0 1
vt 0 1
vt 0 1
vt 0 1
vt 0 0.96875
vt 0.34375 0.96875
vt 0.34375 1
vt 0 1
vt 0 1
vt 0 1
vt 0 1
vt 0 1
vt 0 0.96875
vt 0.34375 0.96875
vt 0.34375 1
vt 0 1
vt 0.34375 0.5
vt 0.34375 0.53125
vt 0 0.53125
vt 0 0.5
vt 0.34375 0.46875
vt 0.34375 0.5
vt 0 0.5
vt 0 0.46875
vn 0 0.7071067811865476 -0.7071067811865475
vn 1 0 0
vn 0 -0.7071067811865476 0.7071067811865475
vn -1 0 0
vn 0 0.7071067811865475 0.7071067811865476
vn 0 -0.7071067811865475 -0.7071067811865476
usemtl m_eb35c013-9d5b-523c-8b12-e2c7db44719e
o base
v 0.03523 0.35128812499999995 -0.411183125
v 0.03523 0.35128812499999995 -1.098683125
v 0.03523 0.28878812499999995 -0.411183125
v 0.03523 0.28878812499999995 -1.098683125
v -0.02727 0.35128812499999995 -1.098683125
v -0.02727 0.35128812499999995 -0.411183125
v -0.02727 0.28878812499999995 -1.098683125
v -0.02727 0.28878812499999995 -0.411183125
vt 0 1
vt 0 1
vt 0 1
vt 0 1
vt 0 0.96875
vt 0.34375 0.96875
vt 0.34375 1
vt 0 1
vt 0 1
vt 0 1
vt 0 1
vt 0 1
vt 0 0.96875
vt 0.34375 0.96875
vt 0.34375 1
vt 0 1
vt 0.34375 0.5
vt 0.34375 0.53125
vt 0 0.53125
vt 0 0.5
vt 0.34375 0.46875
vt 0.34375 0.5
vt 0 0.5
vt 0 0.46875
vn 0 0 -1
vn 1 0 0
vn 0 0 1
vn -1 0 0
vn 0 1 0
vn 0 -1 0
usemtl m_eb35c013-9d5b-523c-8b12-e2c7db44719e
o base
v 0.03523 0.7749239529861394 0.07495258407961192
v 0.03523 0.8191181268102986 0.030758410255452784
v 0.03523 0.288788040920388 -0.4111833279861396
v 0.03523 0.33298221474454726 -0.45537750181029873
v -0.02727 0.8191181268102986 0.030758410255452784
v -0.02727 0.7749239529861394 0.07495258407961192
v -0.02727 0.33298221474454726 -0.45537750181029873
v -0.02727 0.288788040920388 -0.4111833279861396
vt 0 0.53125
vt 0 0.5
vt 0.34375 0.5
vt 0.34375 0.53125
vt 0 1
vt 0 0.96875
vt 0.34375 0.96875
vt 0.34375 1
vt 0.34375 0.96875
vt 0.34375 1
vt 0 1
vt 0 0.96875
vt 0.34375 0.96875
vt 0.34375 1
vt 0 1
vt 0 0.96875
vt 0 1
vt 0 1
vt 0 1
vt 0 1
vt 0 1
vt 0 1
vt 0 1
vt 0 1
vn 0 0.7071067811865476 -0.7071067811865475
vn 1 0 0
vn 0 -0.7071067811865476 0.7071067811865475
vn -1 0 0
vn 0 0.7071067811865475 0.7071067811865476
vn 0 -0.7071067811865475 -0.7071067811865476
usemtl m_eb35c013-9d5b-523c-8b12-e2c7db44719e
o base
v 0.03523 0.5981472576895025 -0.19021245886534344
v 0.03523 1.084283169755254 -0.6763483709310948
v 0.03523 0.5539530838653434 -0.23440663268950257
v 0.03523 1.0400889959310948 -0.720542544755254
v -0.02727 1.084283169755254 -0.6763483709310948
v -0.02727 0.5981472576895025 -0.19021245886534344
v -0.02727 1.0400889959310948 -0.720542544755254
v -0.02727 0.5539530838653434 -0.23440663268950257
vt 0 1
vt 0 1
vt 0 1
vt 0 1
vt 0.34375 1
vt 0 1
vt 0 0.96875
vt 0.34375 0.96875
vt 0 1
vt 0 1
vt 0 1
vt 0 1
vt 0.34375 0.53125
vt 0 0.53125
vt 0 0.5
vt 0.34375 0.5
vt 0.34375 0.5
vt 0.34375 0.53125
vt 0 0.53125
vt 0 0.5
vt 0.34375 0.5
vt 0.34375 0.53125
vt 0 0.53125
vt 0 0.5
vn 0 0.7071067811865476 -0.7071067811865475
vn 1 0 0
vn 0 -0.7071067811865476 0.7071067811865475
vn -1 0 0
vn 0 0.7071067811865475 0.7071067811865476
vn 0 -0.7071067811865475 -0.7071067811865476
usemtl m_eb35c013-9d5b-523c-8b12-e2c7db44719e
o base
v 0.03523 1.14992375 0.012452499999999977
v 0.03523 1.14992375 -0.6750475
v 0.03523 1.08742375 0.012452499999999977
v 0.03523 1.08742375 -0.6750475
v -0.02727 1.14992375 -0.6750475
v -0.02727 1.14992375 0.012452499999999977
v -0.02727 1.08742375 -0.6750475
v -0.02727 1.08742375 0.012452499999999977
vt 0 1
vt 0 1
vt 0 1
vt 0 1
vt 0 0.96875
vt 0.34375 0.96875
vt 0.34375 1
vt 0 1
vt 0 1
vt 0 1
vt 0 1
vt 0 1
vt 0.34375 1
vt 0 1
vt 0 0.96875
vt 0.34375 0.96875
vt 0.34375 0.5
vt 0.34375 0.53125
vt 0 0.53125
vt 0 0.5
vt 0.34375 0.5
vt 0.34375 0.53125
vt 0 0.53125
vt 0 0.5
vn 0 0 -1
vn 1 0 0
vn 0 0 1
vn -1 0 0
vn 0 1 0
vn 0 -1 0
usemtl m_eb35c013-9d5b-523c-8b12-e2c7db44719e
o base
v 0.03523 1.038788125 -0.723683125
v 0.03523 1.038788125 -0.786183125
v 0.03523 0.35128812499999995 -0.723683125
v 0.03523 0.35128812499999995 -0.786183125
v -0.02727 1.038788125 -0.786183125
v -0.02727 1.038788125 -0.723683125
v -0.02727 0.35128812499999995 -0.786183125
v -0.02727 0.35128812499999995 -0.723683125
vt 0 0.53125
vt 0 0.5
vt 0.34375 0.5
vt 0.34375 0.53125
vt 0 1
vt 0 0.96875
vt 0.34375 0.96875
vt 0.34375 1
vt 0.34375 0.5
vt 0.34375 0.53125
vt 0 0.53125
vt 0 0.5
vt 0.53125 0.96875
vt 0.53125 1
vt 0.1875 1
vt 0.1875 0.96875
vt 0 1
vt 0 1
vt 0 1
vt 0 1
vt 0 1
vt 0 1
vt 0 1
vt 0 1
vn 0 0 -1
vn 1 0 0
vn 0 0 1
vn -1 0 0
vn 0 1 0
vn 0 -1 0
usemtl m_eb35c013-9d5b-523c-8b12-e2c7db44719e
o base
v 0.03523 1.0400889959310948 -0.7893237052447459
v 0.03523 1.084283169755254 -0.8335178790689052
v 0.03523 0.5539530838653434 -1.2754596173104975
v 0.03523 0.5981472576895025 -1.3196537911346566
v -0.02727 1.084283169755254 -0.8335178790689052
v -0.02727 1.0400889959310948 -0.7893237052447459
v -0.02727 0.5981472576895025 -1.3196537911346566
v -0.02727 0.5539530838653434 -1.2754596173104975
vt 0 0.53125
vt 0 0.5
vt 0.34375 0.5
vt 0.34375 0.53125
vt 0 1
vt 0 0.96875
vt 0.34375 0.96875
vt 0.34375 1
vt 0.34375 0.5
vt 0.34375 0.53125
vt 0 0.53125
vt 0 0.5
vt 0.34375 0.96875
vt 0.34375 1
vt 0 1
vt 0 0.96875
vt 0 1
vt 0 1
vt 0 1
vt 0 1
vt 0 1
vt 0 1
vt 0 1
vt 0 1
vn 0 0.7071067811865476 -0.7071067811865475
vn 1 0 0
vn 0 -0.7071067811865476 0.7071067811865475
vn -1 0 0
vn 0 0.7071067811865475 0.7071067811865476
vn 0 -0.7071067811865475 -0.7071067811865476
usemtl m_eb35c013-9d5b-523c-8b12-e2c7db44719e
o base
v 0.03523 1.14992375 -0.8348187499999999
v 0.03523 1.14992375 -1.52231875
v 0.03523 1.08742375 -0.8348187499999999
v 0.03523 1.08742375 -1.52231875
v -0.02727 1.14992375 -1.52231875
v -0.02727 1.14992375 -0.8348187499999999
v -0.02727 1.08742375 -1.52231875
v -0.02727 1.08742375 -0.8348187499999999
vt 0 1
vt 0 1
vt 0 1
vt 0 1
vt 0 0.96875
vt 0.34375 0.96875
vt 0.34375 1
vt 0 1
vt 0 1
vt 0 1
vt 0 1
vt 0 1
vt 0.15625 0.96875
vt 0.5 0.96875
vt 0.5 1
vt 0.15625 1
vt 0.34375 0.5
vt 0.34375 0.53125
vt 0 0.53125
vt 0 0.5
vt 0.34375 0.5
vt 0.34375 0.53125
vt 0 0.53125
vt 0 0.5
vn 0 0 -1
vn 1 0 0
vn 0 0 1
vn -1 0 0
vn 0 1 0
vn 0 -1 0
usemtl m_eb35c013-9d5b-523c-8b12-e2c7db44719e
o base
v 0.03523 1.197258504068905 -0.7893237052447459
v 0.03523 1.6833944161346563 -1.2754596173104975
v 0.03523 1.1530643302447459 -0.8335178790689052
v 0.03523 1.6392002423104972 -1.3196537911346566
v -0.02727 1.6833944161346563 -1.2754596173104975
v -0.02727 1.197258504068905 -0.7893237052447459
v -0.02727 1.6392002423104972 -1.3196537911346566
v -0.02727 1.1530643302447459 -0.8335178790689052
vt 0 1
vt 0 1
vt 0 1
vt 0 1
vt 0.34375 1
vt 0 1
vt 0 0.96875
vt 0.34375 0.96875
vt 0 1
vt 0 1
vt 0 1
vt 0 1
vt 0.3125 0.96875
vt 0.65625 0.96875
vt 0.65625 1
vt 0.3125 1
vt 0.34375 0.5
vt 0.34375 0.53125
vt 0 0.53125
vt 0 0.5
vt 0.34375 0.5
vt 0.34375 0.53125
vt 0 0.53125
vt 0 0.5
vn 0 0.7071067811865476 -0.7071067811865475
vn 1 0 0
vn 0 -0.7071067811865476 0.7071067811865475
vn -1 0 0
vn 0 0.7071067811865475 0.7071067811865476
vn 0 -0.7071067811865475 -0.7071067811865476
usemtl m_eb35c013-9d5b-523c-8b12-e2c7db44719e
o base
v 0.03523 1.6392002423104974 -0.19021245886534321
v 0.03523 1.6833944161346566 -0.23440663268950235
v 0.03523 1.153064330244746 -0.6763483709310947
v 0.03523 1.1972585040689052 -0.7205425447552538
v -0.02727 1.6833944161346566 -0.23440663268950235
v -0.02727 1.6392002423104974 -0.19021245886534321
v -0.02727 1.1972585040689052 -0.7205425447552538
v -0.02727 1.153064330244746 -0.6763483709310947
vt 0 0.53125
vt 0 0.5
vt 0.34375 0.5
vt 0.34375 0.53125
vt 0 1
vt 0 0.96875
vt 0.34375 0.96875
vt 0.34375 1
vt 0.34375 0.5
vt 0.34375 0.53125
vt 0 0.53125
vt 0 0.5
vt 0.125 1
vt 0.125 0.96875
vt 0.46875 0.96875
vt 0.46875 1
vt 0 1
vt 0 1
vt 0 1
vt 0 1
vt 0 1
vt 0 1
vt 0 1
vt 0 1
vn 0 0.7071067811865476 -0.7071067811865475
vn 1 0 0
vn 0 -0.7071067811865476 0.7071067811865475
vn -1 0 0
vn 0 0.7071067811865475 0.7071067811865476
vn 0 -0.7071067811865475 -0.7071067811865476
usemtl m_eb35c013-9d5b-523c-8b12-e2c7db44719e
o base
v 0.03523 1.886059375 -0.723683125
v 0.03523 1.886059375 -0.786183125
v 0.03523 1.198559375 -0.723683125
v 0.03523 1.198559375 -0.786183125
v -0.02727 1.886059375 -0.786183125
v -0.02727 1.886059375 -0.723683125
v -0.02727 1.198559375 -0.786183125
v -0.02727 1.198559375 -0.723683125
vt 0 0.53125
vt 0 0.5
vt 0.34375 0.5
vt 0.34375 0.53125
vt 0 1
vt 0 0.96875
vt 0.34375 0.96875
vt 0.34375 1
vt 0.34375 0.5
vt 0.34375 0.53125
vt 0 0.53125
vt 0 0.5
vt 0 1
vt 0 0.96875
vt 0.34375 0.96875
vt 0.34375 1
vt 0 1
vt 0 1
vt 0 1
vt 0 1
vt 0 1
vt 0 1
vt 0 1
vt 0 1
vn 0 0 -1
vn 1 0 0
vn 0 0 1
vn -1 0 0
vn 0 1 0
vn 0 -1 0
usemtl m_eb35c013-9d5b-523c-8b12-e2c7db44719e
o base
v 0.03523 1.46242375 -1.522319375
v 0.03523 1.46242375 -1.584819375
v 0.03523 0.7749237499999999 -1.522319375
v 0.03523 0.7749237499999999 -1.584819375
v -0.02727 1.46242375 -1.584819375
v -0.02727 1.46242375 -1.522319375
v -0.02727 0.7749237499999999 -1.584819375
v -0.02727 0.7749237499999999 -1.522319375
vt 0 0.5
vt 0 0.46875
vt 0.34375 0.46875
vt 0.34375 0.5
vt 0 1
vt 0 0.96875
vt 0.34375 0.96875
vt 0.34375 1
vt 0.34375 0.5
vt 0.34375 0.53125
vt 0 0.53125
vt 0 0.5
vt 0 1
vt 0 0.96875
vt 0.34375 0.96875
vt 0.34375 1
vt 0 1
vt 0 1
vt 0 1
vt 0 1
vt 0 1
vt 0 1
vt 0 1
vt 0 1
vn 0 0 -1
vn 1 0 0
vn 0 0 1
vn -1 0 0
vn 0 1 0
vn 0 -1 0
usemtl m_eb35c013-9d5b-523c-8b12-e2c7db44719e
o base
v 0.03523 1.9043652852554525 -1.0544887481897012
v 0.03523 1.9485594590796118 -1.0986829220138603
v 0.03523 1.418229373189701 -1.5406246602554527
v 0.03523 1.4624235470138605 -1.5848188340796119
v -0.02727 1.9485594590796118 -1.0986829220138603
v -0.02727 1.9043652852554525 -1.0544887481897012
v -0.02727 1.4624235470138605 -1.5848188340796119
v -0.02727 1.418229373189701 -1.5406246602554527
vt 0 0.5
vt 0 0.46875
vt 0.34375 0.46875
vt 0.34375 0.5
vt 0 1
vt 0 0.96875
vt 0.34375 0.96875
vt 0.34375 1
vt 0.34375 0.5
vt 0.34375 0.53125
vt 0 0.53125
vt 0 0.5
vt 0 1
vt 0 0.96875
vt 0.34375 0.96875
vt 0.34375 1
vt 0 1
vt 0 1
vt 0 1
vt 0 1
vt 0 1
vt 0 1
vt 0 1
vt 0 1
vn 0 0.7071067811865476 -0.7071067811865475
vn 1 0 0
vn 0 -0.7071067811865476 0.7071067811865475
vn -1 0 0
vn 0 0.7071067811865475 0.7071067811865476
vn 0 -0.7071067811865475 -0.7071067811865476
usemtl m_eb35c013-9d5b-523c-8b12-e2c7db44719e
o base
v 0.06648 1.211535625 -0.665180625
v 0.06648 1.211535625 -0.852680625
v 0.06648 1.024035625 -0.665180625
v 0.06648 1.024035625 -0.852680625
v -0.05852 1.211535625 -0.852680625
v -0.05852 1.211535625 -0.665180625
v -0.05852 1.024035625 -0.852680625
v -0.05852 1.024035625 -0.665180625
vt 0.28125 0.84375
vt 0.28125 0.90625
vt 0.1875 0.90625
vt 0.1875 0.84375
vt 0 0.9375
vt 0 0.84375
vt 0.09375 0.84375
vt 0.09375 0.9375
vt 0.1875 0.90625
vt 0.1875 0.84375
vt 0.28125 0.84375
vt 0.28125 0.90625
vt 0 0.9375
vt 0 0.84375
vt 0.09375 0.84375
vt 0.09375 0.9375
vt 0.1875 0.90625
vt 0.1875 0.84375
vt 0.28125 0.84375
vt 0.28125 0.90625
vt 0.1875 0.90625
vt 0.1875 0.84375
vt 0.28125 0.84375
vt 0.28125 0.90625
vn 0 0 -1
vn 1 0 0
vn 0 0 1
vn -1 0 0
vn 0 1 0
vn 0 -1 0
usemtl m_eb35c013-9d5b-523c-8b12-e2c7db44719e
o wheel_parts
v 0.03523 1.2253681464724777 0.678569375
v 0.03523 1.092785625 0.5459868535275223
v 0.03523 1.092785625 0.8111518964724778
v 0.03523 0.9602031035275225 0.678569375
v -0.08977 1.092785625 0.5459868535275223
v -0.08977 1.2253681464724777 0.678569375
v -0.08977 0.9602031035275225 0.678569375
v -0.08977 1.092785625 0.8111518964724778
vt 0.28125 0.84375
vt 0.28125 0.90625
vt 0.1875 0.90625
vt 0.1875 0.84375
vt 0 0.9375
vt 0 0.84375
vt 0.09375 0.84375
vt 0.09375 0.9375
vt 0.09375 0.90625
vt 0.09375 0.84375
vt 0.1875 0.84375
vt 0.1875 0.90625
vt 0 0.9375
vt 0 0.84375
vt 0.09375 0.84375
vt 0.09375 0.9375
vt 0.1875 0.90625
vt 0.1875 0.84375
vt 0.28125 0.84375
vt 0.28125 0.90625
vt 0.09375 0.90625
vt 0.09375 0.84375
vt 0.1875 0.84375
vt 0.1875 0.90625
vn 0 -0.7071067811865476 -0.7071067811865475
vn 1 0 0
vn 0 0.7071067811865476 0.7071067811865475
vn -1 0 0
vn 0 0.7071067811865475 -0.7071067811865476
vn 0 -0.7071067811865475 0.7071067811865476
usemtl m_eb35c013-9d5b-523c-8b12-e2c7db44719e
f 204/508/127 207/507/127 205/506/127 202/505/127
f 203/512/128 204/511/128 202/510/128 201/509/128
f 208/516/129 203/515/129 201/514/129 206/513/129
f 207/520/130 208/519/130 206/518/130 205/517/130
f 206/524/131 201/523/131 202/522/131 205/521/131
f 207/528/132 204/527/132 203/526/132 208/525/132
o wheel_parts
v -0.08977000000000002 1.1369797988241592 0.678569375
v -0.08977000000000002 1.092785625 0.6343752011758408
v -0.08977000000000002 1.092785625 0.7227635488241593
v -0.08977000000000002 1.048591451175841 0.678569375
v -0.40227 1.092785625 0.6343752011758408
v -0.40227 1.1369797988241592 0.678569375
v -0.40227 1.048591451175841 0.678569375
v -0.40227 1.092785625 0.7227635488241593
vt 0.4375 0.53125
vt 0.28125 0.53125
vt 0.28125 0.5
vt 0.4375 0.5
vt 0 1
vt 0 1
vt 0 1
vt 0 1
vt 0.4375 0.53125
vt 0.28125 0.53125
vt 0.28125 0.5
vt 0.4375 0.5
vt 0.03125 0.90625
vt 0.03125 0.875
vt 0.0625 0.875
vt 0.0625 0.90625
vt 0.28125 0.5
vt 0.4375 0.5
vt 0.4375 0.53125
vt 0.28125 0.53125
vt 0.28125 0.5
vt 0.4375 0.5
vt 0.4375 0.53125
vt 0.28125 0.53125
vn 0 -0.7071067811865476 -0.7071067811865475
vn 1 0 0
vn 0 0.7071067811865476 0.7071067811865475
vn -1 0 0
vn 0 0.7071067811865475 -0.7071067811865476
vn 0 -0.7071067811865475 0.7071067811865476
usemtl m_eb35c013-9d5b-523c-8b12-e2c7db44719e
f 212/532/133 215/531/133 213/530/133 210/529/133
f 211/536/134 212/535/134 210/534/134 209/533/134
f 216/540/135 211/539/135 209/538/135 214/537/135
f 215/544/136 216/543/136 214/542/136 213/541/136
f 214/548/137 209/547/137 210/546/137 213/545/137
f 215/552/138 212/551/138 211/550/138 216/549/138
o wheel_parts
v -0.08977000000000002 1.2253681464724777 0.678569375
v -0.08977000000000002 1.092785625 0.5459868535275223
v -0.08977000000000002 1.092785625 0.8111518964724778
v -0.08977000000000002 0.9602031035275225 0.678569375
v -0.39602 1.092785625 0.5459868535275223
v -0.39602 1.2253681464724777 0.678569375
v -0.39602 0.9602031035275225 0.678569375
v -0.39602 1.092785625 0.8111518964724778
vt 0.40625 0.5
vt 0.25 0.5
vt 0.25 0.46875
vt 0.40625 0.46875
vt 0 1
vt 0 1
vt 0 1
vt 0 1
vt 0.40625 0.5
vt 0.25 0.5
vt 0.25 0.46875
vt 0.40625 0.46875
vt 0.21875 0.5
vt 0.21875 0.46875
vt 0.25 0.46875
vt 0.25 0.5
vt 0.25 0.46875
vt 0.40625 0.46875
vt 0.40625 0.5
vt 0.25 0.5
vt 0.25 0.46875
vt 0.40625 0.46875
vt 0.40625 0.5
vt 0.25 0.5
vn 0 -0.7071067811865476 -0.7071067811865475
vn 1 0 0
vn 0 0.7071067811865476 0.7071067811865475
vn -1 0 0
vn 0 0.7071067811865475 -0.7071067811865476
vn 0 -0.7071067811865475 0.7071067811865476
usemtl m_eb35c013-9d5b-523c-8b12-e2c7db44719e
f 220/556/139 223/555/139 221/554/139 218/553/139
f 219/560/140 220/559/140 218/558/140 217/557/140
f 224/564/141 219/563/141 217/562/141 222/561/141
f 223/568/142 224/567/142 222/566/142 221/565/142
f 222/572/143 217/571/143 218/570/143 221/569/143
f 223/576/144 220/575/144 219/574/144 224/573/144