# Made in Blockbench 5.1.6
mtllib spinning_wheel.mtl

o base
v 0.69148 0.65660 1.07669
v 0.69148 0.20216 -0.02042
v 0.69148 0.59886 1.10061
v 0.69148 0.14442 0.00350
v 0.31648 0.20216 -0.02042
v 0.31648 0.65660 1.07669
v 0.31648 0.14442 0.00350
v 0.31648 0.59886 1.10061
vt 0 1
vt 0.1875 1
vt 0.1875 0.96875
vt 0 0.96875
vt 0 1
vt 0.59375 1
vt 0.59375 0.96875
vt 0 0.96875
vt 0 1
vt 0.1875 1
vt 0.1875 0.96875
vt 0 0.96875
vt 0 1
vt 0.59375 1
vt 0.59375 0.96875
vt 0 0.96875
vt 0 0.53125
vt 0 0.71875
vt 0.59375 0.71875
vt 0.59375 0.53125
vt 0 0.53125
vt 0 0.71875
vt 0.59375 0.71875
vt 0.59375 0.53125
vn 0 -0.3826834323650897 -0.9238795325112867
vn 1 0 0
vn 0 0.3826834323650897 0.9238795325112867
vn -1 0 0
vn 0 0.9238795325112867 -0.3826834323650897
vn 0 -0.9238795325112867 0.3826834323650897
usemtl m_eb35c013-9d5b-523c-8b12-e2c7db44719e
o base
v 0.57273 1.18789 -0.09047
v 0.57273 1.11614 -0.26370
v 0.57273 0.32175 0.26829
v 0.57273 0.25000 0.09507
v 0.57273 1.11614 -0.26370
v 0.57273 1.18789 -0.09047
v 0.57273 0.25000 0.09507
v 0.57273 0.32175 0.26829
vt 0 1
vt 0 1
vt 0 0.53125
vt 0 0.53125
vt 0.90625 1
vt 1 1
vt 1 0.53125
vt 0.90625 0.53125
vt 0 1
vt 0 1
vt 0 0.53125
vt 0 0.53125
vt 0.90625 1
vt 1 1
vt 1 0.53125
vt 0.90625 0.53125
vt 0 1
vt 0 1
vt 0 0.90625
vt 0 0.90625
vt 0 1
vt 0 1
vt 0 0.90625
vt 0 0.90625
vn 0 -0.3826834323650897 -0.9238795325112867
vn 1 0 0
vn 0 0.3826834323650897 0.9238795325112867
vn -1 0 0
vn 0 0.9238795325112867 -0.3826834323650897
vn 0 -0.9238795325112867 0.3826834323650897
usemtl m_eb35c013-9d5b-523c-8b12-e2c7db44719e
o base
v 0.40460 1.11125 1.35340
v 0.40460 1.15908 1.23792
v 0.40460 0.53382 1.11423
v 0.40460 0.58166 0.99874
v 0.40398 1.15908 1.23792
v 0.40398 1.11125 1.35340
v 0.40398 0.58166 0.99874
v 0.40398 0.53382 1.11423
vt 0 0.78125
vt 0 0.84375
vt 0.3125 0.84375
vt 0.3125 0.78125
vt 0 0.84375
vt 0 0.78125
vt 0.3125 0.78125
vt 0.3125 0.84375
vn 1 0 0
vn -1 0 0
usemtl m_eb35c013-9d5b-523c-8b12-e2c7db44719e
o base
v 0.68898 0.62500 1.15757
v 0.68898 0.62500 0.84507
v 0.68898 0.00000 1.15757
v 0.68898 0.00000 0.84507
v 0.68836 0.62500 0.84507
v 0.68836 0.62500 1.15757
v 0.68836 0.00000 0.84507
v 0.68836 0.00000 1.15757
vt 0.34375 0.3125
vt 0.5 0.3125
vt 0.5 0
vt 0.34375 0
vt 0.5 0.3125
vt 0.34375 0.3125
vt 0.34375 0
vt 0.5 0
vn 1 0 0
vn -1 0 0
usemtl m_eb35c013-9d5b-523c-8b12-e2c7db44719e
o base
v 0.32023 0.62500 1.15757
v 0.32023 0.62500 0.84507
v 0.32023 0.00000 1.15757
v 0.32023 0.00000 0.84507
v 0.31961 0.62500 0.84507
v 0.31961 0.62500 1.15757
v 0.31961 0.00000 0.84507
v 0.31961 0.00000 1.15757
vt 0.34375 0.3125
vt 0.5 0.3125
vt 0.5 0
vt 0.34375 0
vt 0.5 0.3125
vt 0.34375 0.3125
vt 0.34375 0
vt 0.5 0
vn 1 0 0
vn -1 0 0
usemtl m_eb35c013-9d5b-523c-8b12-e2c7db44719e
o base
v 0.68898 0.25000 0.15757
v 0.68898 0.25000 -0.15493
v 0.68898 0.00000 0.15757
v 0.68898 0.00000 -0.15493
v 0.68836 0.25000 -0.15493
v 0.68836 0.25000 0.15757
v 0.68836 0.00000 -0.15493
v 0.68836 0.00000 0.15757
vt 0.53125 0.125
vt 0.6875 0.125
vt 0.6875 0
vt 0.53125 0
vt 0.6875 0.125
vt 0.53125 0.125
vt 0.53125 0
vt 0.6875 0
vn 1 0 0
vn -1 0 0
usemtl m_eb35c013-9d5b-523c-8b12-e2c7db44719e
o base
v 0.32023 0.25000 0.15757
v 0.32023 0.25000 -0.15493
v 0.32023 0.00000 0.15757
v 0.32023 0.00000 -0.15493
v 0.31961 0.25000 -0.15493
v 0.31961 0.25000 0.15757
v 0.31961 0.00000 -0.15493
v 0.31961 0.00000 0.15757
vt 0.53125 0.125
vt 0.6875 0.125
vt 0.6875 0
vt 0.53125 0
vt 0.6875 0.125
vt 0.53125 0.125
vt 0.53125 0
vt 0.6875 0
vn 1 0 0
vn -1 0 0
usemtl m_eb35c013-9d5b-523c-8b12-e2c7db44719e
o string_top
v 0.53523 1.22537 1.27857
v 0.53523 1.94854 0.18881
v 0.47273 1.22537 1.27857
v 0.47273 1.94856 0.18882
vt 0 0.469903125
vt 0.592596875 0.469903125
vt 0.592596875 0.501153125
vt 0 0.501153125
vn 0.00037943457027899666 0.8332246221949702 0.5529345214376257
usemtl m_eb35c013-9d5b-523c-8b12-e2c7db44719e
o string_bottom
v 0.53523 0.96020 1.27857
v 0.53523 0.28879 0.18882
v 0.47273 0.96020 1.27857
v 0.47273 0.28879 0.18882
vt 0 0.469903125
vt 0.592596875 0.469903125
vt 0.592596875 0.501153125
vt 0 0.501153125
vn -2.3710083621257815e-7 0.8513797472931393 -0.5245498316642704
usemtl m_eb35c013-9d5b-523c-8b12-e2c7db44719e
o wheel_big
v 0.53523 1.94856 0.18882
v 0.53523 1.94856 -0.49868
v 0.53523 1.88606 0.18882
v 0.53523 1.88606 -0.49868
v 0.47273 1.94856 -0.49868
v 0.47273 1.94856 0.18882
v 0.47273 1.88606 -0.49868
v 0.47273 1.88606 0.18882
vt 0 1
vt 0 1
vt 0 1
vt 0 1
vt 0 0.96875
vt 0.34375 0.96875
vt 0.34375 1
vt 0 1
vt 0 1
vt 0 1
vt 0 1
vt 0 1
vt 0.34375 1
vt 0 1
vt 0 0.96875
vt 0.34375 0.96875
vt 0.34375 0.46875
vt 0.34375 0.5
vt 0 0.5
vt 0 0.46875
vt 0.34375 0.5
vt 0.34375 0.53125
vt 0 0.53125
vt 0 0.5
vn 0 0 -1
vn 1 0 0
vn 0 0 1
vn -1 0 0
vn 0 1 0
vn 0 -1 0
usemtl m_eb35c013-9d5b-523c-8b12-e2c7db44719e
o wheel_big
v 0.53523 1.46242 0.67495
v 0.53523 1.94856 0.18882
v 0.53523 1.41823 0.63076
v 0.53523 1.90437 0.14462
v 0.47273 1.94856 0.18882
v 0.47273 1.46242 0.67495
v 0.47273 1.90437 0.14462
v 0.47273 1.41823 0.63076
vt 0 1
vt 0 1
vt 0 1
vt 0 1
vt 0 0.96875
vt 0.34375 0.96875
vt 0.34375 1
vt 0 1
vt 0 1
vt 0 1
vt 0 1
vt 0 1
vt 0.34375 1
vt 0 1
vt 0 0.96875
vt 0.34375 0.96875
vt 0.34375 0.96875
vt 0.34375 1
vt 0 1
vt 0 0.96875
vt 0.34375 0.5
vt 0.34375 0.53125
vt 0 0.53125
vt 0 0.5
vn 0 0.7071067811865476 -0.7071067811865475
vn 1 0 0
vn 0 -0.7071067811865476 0.7071067811865475
vn -1 0 0
vn 0 0.7071067811865475 0.7071067811865476
vn 0 -0.7071067811865475 -0.7071067811865476
usemtl m_eb35c013-9d5b-523c-8b12-e2c7db44719e
o wheel_big
v 0.53523 1.46242 0.67495
v 0.53523 1.46242 0.61245
v 0.53523 0.77492 0.67495
v 0.53523 0.77492 0.61245
v 0.47273 1.46242 0.61245
v 0.47273 1.46242 0.67495
v 0.47273 0.77492 0.61245
v 0.47273 0.77492 0.67495
vt 0 0.53125
vt 0 0.5
vt 0.34375 0.5
vt 0.34375 0.53125
vt 0 1
vt 0 0.96875
vt 0.34375 0.96875
vt 0.34375 1
vt 0.34375 0.96875
vt 0.34375 1
vt 0 1
vt 0 0.96875
vt 0.34375 0.96875
vt 0.34375 1
vt 0 1
vt 0 0.96875
vt 0 1
vt 0 1
vt 0 1
vt 0 1
vt 0 1
vt 0 1
vt 0 1
vt 0 1
vn 0 0 -1
vn 1 0 0
vn 0 0 1
vn -1 0 0
vn 0 1 0
vn 0 -1 0
usemtl m_eb35c013-9d5b-523c-8b12-e2c7db44719e
o wheel_big
v 0.53523 0.33298 -0.45449
v 0.53523 0.81912 -0.94062
v 0.53523 0.28879 -0.49868
v 0.53523 0.77492 -0.98482
v 0.47273 0.81912 -0.94062
v 0.47273 0.33298 -0.45449
v 0.47273 0.77492 -0.98482
v 0.47273 0.28879 -0.49868
vt 0 1
vt 0 1
vt 0 1
vt 0 1
vt 0 0.96875
vt 0.34375 0.96875
vt 0.34375 1
vt 0 1
vt 0 1
vt 0 1
vt 0 1
vt 0 1
vt 0 0.96875
vt 0.34375 0.96875
vt 0.34375 1
vt 0 1
vt 0.34375 0.5
vt 0.34375 0.53125
vt 0 0.53125
vt 0 0.5
vt 0.34375 0.46875
vt 0.34375 0.5
vt 0 0.5
vt 0 0.46875
vn 0 0.7071067811865476 -0.7071067811865475
vn 1 0 0
vn 0 -0.7071067811865476 0.7071067811865475
vn -1 0 0
vn 0 0.7071067811865475 0.7071067811865476
vn 0 -0.7071067811865475 -0.7071067811865476
usemtl m_eb35c013-9d5b-523c-8b12-e2c7db44719e
o wheel_big
v 0.53523 0.35129 0.18882
v 0.53523 0.35129 -0.49868
v 0.53523 0.28879 0.18882
v 0.53523 0.28879 -0.49868
v 0.47273 0.35129 -0.49868
v 0.47273 0.35129 0.18882
v 0.47273 0.28879 -0.49868
v 0.47273 0.28879 0.18882
vt 0 1
vt 0 1
vt 0 1
vt 0 1
vt 0 0.96875
vt 0.34375 0.96875
vt 0.34375 1
vt 0 1
vt 0 1
vt 0 1
vt 0 1
vt 0 1
vt 0 0.96875
vt 0.34375 0.96875
vt 0.34375 1
vt 0 1
vt 0.34375 0.5
vt 0.34375 0.53125
vt 0 0.53125
vt 0 0.5
vt 0.34375 0.46875
vt 0.34375 0.5
vt 0 0.5
vt 0 0.46875
vn 0 0 -1
vn 1 0 0
vn 0 0 1
vn -1 0 0
vn 0 1 0
vn 0 -1 0
usemtl m_eb35c013-9d5b-523c-8b12-e2c7db44719e
o wheel_big
v 0.53523 0.77492 0.67495
v 0.53523 0.81912 0.63076
v 0.53523 0.28879 0.18882
v 0.53523 0.33298 0.14462
v 0.47273 0.81912 0.63076
v 0.47273 0.77492 0.67495
v 0.47273 0.33298 0.14462
v 0.47273 0.28879 0.18882
vt 0 0.53125
vt 0 0.5
vt 0.34375 0.5
vt 0.34375 0.53125
vt 0 1
vt 0 0.96875
vt 0.34375 0.96875
vt 0.34375 1
vt 0.34375 0.96875
vt 0.34375 1
vt 0 1
vt 0 0.96875
vt 0.34375 0.96875
vt 0.34375 1
vt 0 1
vt 0 0.96875
vt 0 1
vt 0 1
vt 0 1
vt 0 1
vt 0 1
vt 0 1
vt 0 1
vt 0 1
vn 0 0.7071067811865476 -0.7071067811865475
vn 1 0 0
vn 0 -0.7071067811865476 0.7071067811865475
vn -1 0 0
vn 0 0.7071067811865475 0.7071067811865476
vn 0 -0.7071067811865475 -0.7071067811865476
usemtl m_eb35c013-9d5b-523c-8b12-e2c7db44719e
o wheel_big
v 0.53523 0.59815 0.40979
v 0.53523 1.08428 -0.07635
v 0.53523 0.55395 0.36559
v 0.53523 1.04009 -0.12054
v 0.47273 1.08428 -0.07635
v 0.47273 0.59815 0.40979
v 0.47273 1.04009 -0.12054
v 0.47273 0.55395 0.36559
vt 0 1
vt 0 1
vt 0 1
vt 0 1
vt 0.34375 1
vt 0 1
vt 0 0.96875
vt 0.34375 0.96875
vt 0 1
vt 0 1
vt 0 1
vt 0 1
vt 0.34375 0.53125
vt 0 0.53125
vt 0 0.5
vt 0.34375 0.5
vt 0.34375 0.5
vt 0.34375 0.53125
vt 0 0.53125
vt 0 0.5
vt 0.34375 0.5
vt 0.34375 0.53125
vt 0 0.53125
vt 0 0.5
vn 0 0.7071067811865476 -0.7071067811865475
vn 1 0 0
vn 0 -0.7071067811865476 0.7071067811865475
vn -1 0 0
vn 0 0.7071067811865475 0.7071067811865476
vn 0 -0.7071067811865475 -0.7071067811865476
usemtl m_eb35c013-9d5b-523c-8b12-e2c7db44719e
o wheel_big
v 0.53523 1.14992 0.61245
v 0.53523 1.14992 -0.07505
v 0.53523 1.08742 0.61245
v 0.53523 1.08742 -0.07505
v 0.47273 1.14992 -0.07505
v 0.47273 1.14992 0.61245
v 0.47273 1.08742 -0.07505
v 0.47273 1.08742 0.61245
vt 0 1
vt 0 1
vt 0 1
vt 0 1
vt 0 0.96875
vt 0.34375 0.96875
vt 0.34375 1
vt 0 1
vt 0 1
vt 0 1
vt 0 1
vt 0 1
vt 0.34375 1
vt 0 1
vt 0 0.96875
vt 0.34375 0.96875
vt 0.34375 0.5
vt 0.34375 0.53125
vt 0 0.53125
vt 0 0.5
vt 0.34375 0.5
vt 0.34375 0.53125
vt 0 0.53125
vt 0 0.5
vn 0 0 -1
vn 1 0 0
vn 0 0 1
vn -1 0 0
vn 0 1 0
vn 0 -1 0
usemtl m_eb35c013-9d5b-523c-8b12-e2c7db44719e
o wheel_big
v 0.53523 1.03879 -0.12368
v 0.53523 1.03879 -0.18618
v 0.53523 0.35129 -0.12368
v 0.53523 0.35129 -0.18618
v 0.47273 1.03879 -0.18618
v 0.47273 1.03879 -0.12368
v 0.47273 0.35129 -0.18618
v 0.47273 0.35129 -0.12368
vt 0 0.53125
vt 0 0.5
vt 0.34375 0.5
vt 0.34375 0.53125
vt 0 1
vt 0 0.96875
vt 0.34375 0.96875
vt 0.34375 1
vt 0.34375 0.5
vt 0.34375 0.53125
vt 0 0.53125
vt 0 0.5
vt 0.53125 0.96875
vt 0.53125 1
vt 0.1875 1
vt 0.1875 0.96875
vt 0 1
vt 0 1
vt 0 1
vt 0 1
vt 0 1
vt 0 1
vt 0 1
vt 0 1
vn 0 0 -1
vn 1 0 0
vn 0 0 1
vn -1 0 0
vn 0 1 0
vn 0 -1 0
usemtl m_eb35c013-9d5b-523c-8b12-e2c7db44719e
o wheel_big
v 0.53523 1.04009 -0.18932
v 0.53523 1.08428 -0.23352
v 0.53523 0.55395 -0.67546
v 0.53523 0.59815 -0.71965
v 0.47273 1.08428 -0.23352
v 0.47273 1.04009 -0.18932
v 0.47273 0.59815 -0.71965
v 0.47273 0.55395 -0.67546
vt 0 0.53125
vt 0 0.5
vt 0.34375 0.5
vt 0.34375 0.53125
vt 0 1
vt 0 0.96875
vt 0.34375 0.96875
vt 0.34375 1
vt 0.34375 0.5
vt 0.34375 0.53125
vt 0 0.53125
vt 0 0.5
vt 0.34375 0.96875
vt 0.34375 1
vt 0 1
vt 0 0.96875
vt 0 1
vt 0 1
vt 0 1
vt 0 1
vt 0 1
vt 0 1
vt 0 1
vt 0 1
vn 0 0.7071067811865476 -0.7071067811865475
vn 1 0 0
vn 0 -0.7071067811865476 0.7071067811865475
vn -1 0 0
vn 0 0.7071067811865475 0.7071067811865476
vn 0 -0.7071067811865475 -0.7071067811865476
usemtl m_eb35c013-9d5b-523c-8b12-e2c7db44719e
o wheel_big
v 0.53523 1.14992 -0.23482
v 0.53523 1.14992 -0.92232
v 0.53523 1.08742 -0.23482
v 0.53523 1.08742 -0.92232
v 0.47273 1.14992 -0.92232
v 0.47273 1.14992 -0.23482
v 0.47273 1.08742 -0.92232
v 0.47273 1.08742 -0.23482
vt 0 1
vt 0 1
vt 0 1
vt 0 1
vt 0 0.96875
vt 0.34375 0.96875
vt 0.34375 1
vt 0 1
vt 0 1
vt 0 1
vt 0 1
vt 0 1
vt 0.15625 0.96875
vt 0.5 0.96875
vt 0.5 1
vt 0.15625 1
vt 0.34375 0.5
vt 0.34375 0.53125
vt 0 0.53125
vt 0 0.5
vt 0.34375 0.5
vt 0.34375 0.53125
vt 0 0.53125
vt 0 0.5
vn 0 0 -1
vn 1 0 0
vn 0 0 1
vn -1 0 0
vn 0 1 0
vn 0 -1 0
usemtl m_eb35c013-9d5b-523c-8b12-e2c7db44719e
o wheel_big
v 0.53523 1.19726 -0.18932
v 0.53523 1.68339 -0.67546
v 0.53523 1.15306 -0.23352
v 0.53523 1.63920 -0.71965
v 0.47273 1.68339 -0.67546
v 0.47273 1.19726 -0.18932
v 0.47273 1.63920 -0.71965
v 0.47273 1.15306 -0.23352
vt 0 1
vt 0 1
vt 0 1
vt 0 1
vt 0.34375 1
vt 0 1
vt 0 0.96875
vt 0.34375 0.96875
vt 0 1
vt 0 1
vt 0 1
vt 0 1
vt 0.3125 0.96875
vt 0.65625 0.96875
vt 0.65625 1
vt 0.3125 1
vt 0.34375 0.5
vt 0.34375 0.53125
vt 0 0.53125
vt 0 0.5
vt 0.34375 0.5
vt 0.34375 0.53125
vt 0 0.53125
vt 0 0.5
vn 0 0.7071067811865476 -0.7071067811865475
vn 1 0 0
vn 0 -0.7071067811865476 0.7071067811865475
vn -1 0 0
vn 0 0.7071067811865475 0.7071067811865476
vn 0 -0.7071067811865475 -0.7071067811865476
usemtl m_eb35c013-9d5b-523c-8b12-e2c7db44719e
o wheel_big
v 0.53523 1.63920 0.40979
v 0.53523 1.68339 0.36559
v 0.53523 1.15306 -0.07635
v 0.53523 1.19726 -0.12054
v 0.47273 1.68339 0.36559
v 0.47273 1.63920 0.40979
v 0.47273 1.19726 -0.12054
v 0.47273 1.15306 -0.07635
vt 0 0.53125
vt 0 0.5
vt 0.34375 0.5
vt 0.34375 0.53125
vt 0 1
vt 0 0.96875
vt 0.34375 0.96875
vt 0.34375 1
vt 0.34375 0.5
vt 0.34375 0.53125
vt 0 0.53125
vt 0 0.5
vt 0.125 1
vt 0.125 0.96875
vt 0.46875 0.96875
vt 0.46875 1
vt 0 1
vt 0 1
vt 0 1
vt 0 1
vt 0 1
vt 0 1
vt 0 1
vt 0 1
vn 0 0.7071067811865476 -0.7071067811865475
vn 1 0 0
vn 0 -0.7071067811865476 0.7071067811865475
vn -1 0 0
vn 0 0.7071067811865475 0.7071067811865476
vn 0 -0.7071067811865475 -0.7071067811865476
usemtl m_eb35c013-9d5b-523c-8b12-e2c7db44719e
o wheel_big
v 0.53523 1.88606 -0.12368
v 0.53523 1.88606 -0.18618
v 0.53523 1.19856 -0.12368
v 0.53523 1.19856 -0.18618
v 0.47273 1.88606 -0.18618
v 0.47273 1.88606 -0.12368
v 0.47273 1.19856 -0.18618
v 0.47273 1.19856 -0.12368
vt 0 0.53125
vt 0 0.5
vt 0.34375 0.5
vt 0.34375 0.53125
vt 0 1
vt 0 0.96875
vt 0.34375 0.96875
vt 0.34375 1
vt 0.34375 0.5
vt 0.34375 0.53125
vt 0 0.53125
vt 0 0.5
vt 0 1
vt 0 0.96875
vt 0.34375 0.96875
vt 0.34375 1
vt 0 1
vt 0 1
vt 0 1
vt 0 1
vt 0 1
vt 0 1
vt 0 1
vt 0 1
vn 0 0 -1
vn 1 0 0
vn 0 0 1
vn -1 0 0
vn 0 1 0
vn 0 -1 0
usemtl m_eb35c013-9d5b-523c-8b12-e2c7db44719e
o wheel_big
v 0.53523 1.46242 -0.92232
v 0.53523 1.46242 -0.98482
v 0.53523 0.77492 -0.92232
v 0.53523 0.77492 -0.98482
v 0.47273 1.46242 -0.98482
v 0.47273 1.46242 -0.92232
v 0.47273 0.77492 -0.98482
v 0.47273 0.77492 -0.92232
vt 0 0.5
vt 0 0.46875
vt 0.34375 0.46875
vt 0.34375 0.5
vt 0 1
vt 0 0.96875
vt 0.34375 0.96875
vt 0.34375 1
vt 0.34375 0.5
vt 0.34375 0.53125
vt 0 0.53125
vt 0 0.5
vt 0 1
vt 0 0.96875
vt 0.34375 0.96875
vt 0.34375 1
vt 0 1
vt 0 1
vt 0 1
vt 0 1
vt 0 1
vt 0 1
vt 0 1
vt 0 1
vn 0 0 -1
vn 1 0 0
vn 0 0 1
vn -1 0 0
vn 0 1 0
vn 0 -1 0
usemtl m_eb35c013-9d5b-523c-8b12-e2c7db44719e
o wheel_big
v 0.53523 1.90437 -0.45449
v 0.53523 1.94856 -0.49868
v 0.53523 1.41823 -0.94062
v 0.53523 1.46242 -0.98482
v 0.47273 1.94856 -0.49868
v 0.47273 1.90437 -0.45449
v 0.47273 1.46242 -0.98482
v 0.47273 1.41823 -0.94062
vt 0 0.5
vt 0 0.46875
vt 0.34375 0.46875
vt 0.34375 0.5
vt 0 1
vt 0 0.96875
vt 0.34375 0.96875
vt 0.34375 1
vt 0.34375 0.5
vt 0.34375 0.53125
vt 0 0.53125
vt 0 0.5
vt 0 1
vt 0 0.96875
vt 0.34375 0.96875
vt 0.34375 1
vt 0 1
vt 0 1
vt 0 1
vt 0 1
vt 0 1
vt 0 1
vt 0 1
vt 0 1
vn 0 0.7071067811865476 -0.7071067811865475
vn 1 0 0
vn 0 -0.7071067811865476 0.7071067811865475
vn -1 0 0
vn 0 0.7071067811865475 0.7071067811865476
vn 0 -0.7071067811865475 -0.7071067811865476
usemtl m_eb35c013-9d5b-523c-8b12-e2c7db44719e
o wheel_big
v 0.56648 1.21154 -0.06518
v 0.56648 1.21154 -0.25268
v 0.56648 1.02404 -0.06518
v 0.56648 1.02404 -0.25268
v 0.44148 1.21154 -0.25268
v 0.44148 1.21154 -0.06518
v 0.44148 1.02404 -0.25268
v 0.44148 1.02404 -0.06518
vt 0.28125 0.84375
vt 0.28125 0.90625
vt 0.1875 0.90625
vt 0.1875 0.84375
vt 0 0.9375
vt 0 0.84375
vt 0.09375 0.84375
vt 0.09375 0.9375
vt 0.1875 0.90625
vt 0.1875 0.84375
vt 0.28125 0.84375
vt 0.28125 0.90625
vt 0 0.9375
vt 0 0.84375
vt 0.09375 0.84375
vt 0.09375 0.9375
vt 0.1875 0.90625
vt 0.1875 0.84375
vt 0.28125 0.84375
vt 0.28125 0.90625
vt 0.1875 0.90625
vt 0.1875 0.84375
vt 0.28125 0.84375
vt 0.28125 0.90625
vn 0 0 -1
vn 1 0 0
vn 0 0 1
vn -1 0 0
vn 0 1 0
vn 0 -1 0
usemtl m_eb35c013-9d5b-523c-8b12-e2c7db44719e
o wheel_part_1
v 0.53523 1.22537 1.27857
v 0.53523 1.09279 1.14599
v 0.53523 1.09279 1.41115
v 0.53523 0.96020 1.27857
v 0.41023 1.09279 1.14599
v 0.41023 1.22537 1.27857
v 0.41023 0.96020 1.27857
v 0.41023 1.09279 1.41115
vt 0.28125 0.84375
vt 0.28125 0.90625
vt 0.1875 0.90625
vt 0.1875 0.84375
vt 0 0.9375
vt 0 0.84375
vt 0.09375 0.84375
vt 0.09375 0.9375
vt 0.09375 0.90625
vt 0.09375 0.84375
vt 0.1875 0.84375
vt 0.1875 0.90625
vt 0 0.9375
vt 0 0.84375
vt 0.09375 0.84375
vt 0.09375 0.9375
vt 0.1875 0.90625
vt 0.1875 0.84375
vt 0.28125 0.84375
vt 0.28125 0.90625
vt 0.09375 0.90625
vt 0.09375 0.84375
vt 0.1875 0.84375
vt 0.1875 0.90625
vn 0 -0.7071067811865476 -0.7071067811865475
vn 1 0 0
vn 0 0.7071067811865476 0.7071067811865475
vn -1 0 0
vn 0 0.7071067811865475 -0.7071067811865476
vn 0 -0.7071067811865475 0.7071067811865476
usemtl m_eb35c013-9d5b-523c-8b12-e2c7db44719e
f 204/508/127 207/507/127 205/506/127 202/505/127
f 203/512/128 204/511/128 202/510/128 201/509/128
f 208/516/129 203/515/129 201/514/129 206/513/129
f 207/520/130 208/519/130 206/518/130 205/517/130
f 206/524/131 201/523/131 202/522/131 205/521/131
f 207/528/132 204/527/132 203/526/132 208/525/132
o wheel_part_2
v 0.41023 1.13698 1.27857
v 0.41023 1.09279 1.23438
v 0.41023 1.09279 1.32276
v 0.41023 1.04859 1.27857
v 0.09773 1.09279 1.23438
v 0.09773 1.13698 1.27857
v 0.09773 1.04859 1.27857
v 0.09773 1.09279 1.32276
vt 0.4375 0.53125
vt 0.28125 0.53125
vt 0.28125 0.5
vt 0.4375 0.5
vt 0 1
vt 0 1
vt 0 1
vt 0 1
vt 0.4375 0.53125
vt 0.28125 0.53125
vt 0.28125 0.5
vt 0.4375 0.5
vt 0.03125 0.90625
vt 0.03125 0.875
vt 0.0625 0.875
vt 0.0625 0.90625
vt 0.28125 0.5
vt 0.4375 0.5
vt 0.4375 0.53125
vt 0.28125 0.53125
vt 0.28125 0.5
vt 0.4375 0.5
vt 0.4375 0.53125
vt 0.28125 0.53125
vn 0 -0.7071067811865476 -0.7071067811865475
vn 1 0 0
vn 0 0.7071067811865476 0.7071067811865475
vn -1 0 0
vn 0 0.7071067811865475 -0.7071067811865476
vn 0 -0.7071067811865475 0.7071067811865476
usemtl m_eb35c013-9d5b-523c-8b12-e2c7db44719e
f 212/532/133 215/531/133 213/530/133 210/529/133
f 211/536/134 212/535/134 210/534/134 209/533/134
f 216/540/135 211/539/135 209/538/135 214/537/135
f 215/544/136 216/543/136 214/542/136 213/541/136
f 214/548/137 209/547/137 210/546/137 213/545/137
f 215/552/138 212/551/138 211/550/138 216/549/138
o bolt
v 0.41023 1.22537 1.27857
v 0.41023 1.09279 1.14599
v 0.41023 1.09279 1.41115
v 0.41023 0.96020 1.27857
v 0.10398 1.09279 1.14599
v 0.10398 1.22537 1.27857
v 0.10398 0.96020 1.27857
v 0.10398 1.09279 1.41115
vt 0.40625 0.5
vt 0.25 0.5
vt 0.25 0.46875
vt 0.40625 0.46875
vt 0 1
vt 0 1
vt 0 1
vt 0 1
vt 0.40625 0.5
vt 0.25 0.5
vt 0.25 0.46875
vt 0.40625 0.46875
vt 0.21875 0.5
vt 0.21875 0.46875
vt 0.25 0.46875
vt 0.25 0.5
vt 0.25 0.46875
vt 0.40625 0.46875
vt 0.40625 0.5
vt 0.25 0.5
vt 0.25 0.46875
vt 0.40625 0.46875
vt 0.40625 0.5
vt 0.25 0.5
vn 0 -0.7071067811865476 -0.7071067811865475
vn 1 0 0
vn 0 0.7071067811865476 0.7071067811865475
vn -1 0 0
vn 0 0.7071067811865475 -0.7071067811865476
vn 0 -0.7071067811865475 0.7071067811865476
usemtl m_eb35c013-9d5b-523c-8b12-e2c7db44719e
f 220/556/139 223/555/139 221/554/139 218/553/139
f 219/560/140 220/559/140 218/558/140 217/557/140
f 224/564/141 219/563/141 217/562/141 222/561/141
f 223/568/142 224/567/142 222/566/142 221/565/142
f 222/572/143 217/571/143 218/570/143 221/569/143
f 223/576/144 220/575/144 219/574/144 224/573/144